<?xml version="1.0" encoding="utf-8"?>
<!-- Generator: Adobe Illustrator 16.0.0, SVG Export Plug-In . SVG Version: 6.00 Build 0)  -->
<!DOCTYPE svg PUBLIC "-//W3C//DTD SVG 1.1//EN" "http://www.w3.org/Graphics/SVG/1.1/DTD/svg11.dtd">
<svg version="1.1" id="Layer_1" xmlns="http://www.w3.org/2000/svg" xmlns:xlink="http://www.w3.org/1999/xlink" x="0px" y="0px"
	 width="47.5px" height="54.75px" viewBox="0 0 47.5 54.75" enable-background="new 0 0 47.5 54.75" xml:space="preserve">
<path d="M39.102,33.438H9.5c-1.517,0-2.75-1.233-2.75-2.75V3.345c0-1.516,1.233-2.75,2.75-2.75h29.602c1.517,0,2.75,1.234,2.75,2.75
	v27.344C41.852,32.205,40.618,33.438,39.102,33.438z M9.5,2.095c-0.689,0-1.25,0.561-1.25,1.25v27.344c0,0.689,0.561,1.25,1.25,1.25
	h29.602c0.689,0,1.25-0.561,1.25-1.25V3.345c0-0.689-0.561-1.25-1.25-1.25H9.5z"/>
<path fill="#231F20" d="M10.205,15.401c-0.003,0.003,0.249-0.053,0.249-0.053c-0.061,0.02,0.458-0.535,0.459-0.248
	c0,0.009,0.33-0.055,0.383-0.052l0.039-0.007c0-0.05,0.028-0.092,0.063-0.094c0.036-0.003,0.12,0.009,0.12,0.018
	c0,0.007,0.042,0.021,0.095,0.013l0.041,0.015c0.069,0.021-0.085,0.074,0.048,0.044C11.7,14.964,11.7,14.897,11.7,14.889
	c0-0.009,0.039-0.031,0.091-0.031c0.098-0.035-0.11-0.056,0.046-0.046c0,0,0.018,0.062,0.092,0.044
	c-0.002-0.049,0.005-0.079,0.017-0.065c0.008,0.013,0.074,0.012,0.074,0.004c0-0.009,0.082-0.009,0.183,0.013l0.009-0.002
	c0.02-0.049,0.057-0.088,0.082-0.088s0.066-0.041,0.091-0.09c0.046-0.019,0.096,0.027,0.137-0.002
	c0.035-0.026,0.014-0.105,0.044-0.135c0.016-0.015,0.128-0.04,0.137-0.045c0-0.05,0.02-0.092,0.044-0.092
	c0.027,0,0.046-0.006,0.046-0.015c0-0.007,0.022-0.03,0.051-0.03c0.026,0,0.085,0.005,0.085,0.014c0,0.009,0.008,0.017,0.016,0.002
	c0.011-0.014,0.123-0.011,0.123-0.003c0,0.008,0.061,0.021,0.133,0.011l0.052,0.017c0.154,0.049-0.172,0.044,0.044,0.044
	c0-0.049,0.06-0.056,0.136-0.015l0.139-0.034c-0.002-0.049,0.018-0.089,0.044-0.089c0.025,0,0.046-0.008,0.046-0.015
	c0-0.009,0.035-0.032,0.082-0.033c0.044-0.003,0.191-0.052,0.191-0.06s0.014-0.033,0.035-0.037c0.021-0.005,0.1-0.046,0.1-0.053
	c0-0.01,0.023-0.029,0.049-0.027c0.029,0.001,0.087-0.012,0.087-0.021c0-0.007,0.06-0.036,0.135-0.043l0.048,0.012
	c0.051,0.025,0.08,0.007,0.067-0.04l0.023-0.052c0.052,0,0.093-0.07,0.093-0.155l0.042-0.069c0.052-0.026,0.091-0.053,0.091-0.061
	c0-0.009,0.042-0.032,0.092-0.032c0.042-0.093-0.039-0.218-0.004-0.313c0.075-0.049,0.137-0.131,0.135-0.18l0.016-0.021
	c0.042,0.035,0.069,0.019,0.059-0.038l0.016-0.031l0.092-0.002l0.016-0.005c0.064-0.121,0.16-0.221,0.211-0.221
	c0.012-0.033-0.027-0.113-0.004-0.136l0.026-0.022c0.061,0.012,0.112,0.016,0.112,0.007c0-0.009,0.014-0.042,0.03-0.058
	c0.018-0.016,0.106-0.07,0.106-0.078c0-0.009,0.005-0.03,0.014-0.03c0.009,0,0.021-0.017,0.011-0.036s0.023-0.066,0.085-0.08
	l0.023-0.02c0-0.05,0.007-0.09,0.016-0.09c0.009,0,0.049-0.031,0.075-0.069c0.024-0.037,0.065-0.068,0.09-0.068
	c0.026,0,0.057-0.02,0.069-0.045c0.013-0.024,0.044-0.045,0.068-0.046c0.026,0,0.046-0.006,0.046-0.014
	c0-0.008,0.021-0.03,0.046-0.03c0.024,0,0.044-0.008,0.044-0.016s0.02-0.051,0.045-0.075c0.026-0.025,0.053-0.046,0.062-0.046
	c0.009,0,0.03-0.021,0.028-0.045c0-0.024,0.062-0.084,0.137-0.136l0.037-0.062c0.003-0.089,0.014-0.163,0.021-0.163
	c0.011-0.001,0.03-0.021,0.03-0.045s0.007-0.045,0.016-0.045c0.009,0,0.028-0.04,0.028-0.091c0.005-0.01,0.087-0.032,0.088-0.045
	c0.016-0.037-0.021-0.108,0-0.136l0.011-0.012c0.044-0.019,0.08-0.04,0.08-0.047c0-0.009,0.021-0.031,0.046-0.031
	c0.025,0,0.046-0.008,0.046-0.016s0.041-0.03,0.09-0.031l0.149-0.122c-0.056,0.017-0.103,0.025-0.103,0.017
	c0-0.007,0.041-0.03,0.09-0.031l0.055-0.061c0.018-0.09,0.075-0.164,0.126-0.164c0.016-0.046-0.032-0.144-0.002-0.18
	c0.05,0,0.091-0.007,0.091-0.016c0-0.009,0.032-0.061,0.069-0.099c0.038-0.038,0.156-0.12,0.156-0.128s0.034-0.037,0.075-0.046
	c0.041-0.008,0.108-0.038,0.108-0.045c0-0.008,0.024-0.026,0.053-0.021c0.028,0.005,0.083-0.019,0.083-0.025
	c0-0.008,0.02-0.067,0.044-0.111S18.14,9.72,18.14,9.712c0-0.009,0.021-0.03,0.047-0.03c0.022,0,0.044-0.042,0.044-0.092
	c0.046-0.018,0.142,0.025,0.183-0.001c0.04-0.029,0.021-0.117,0.044-0.135l0.092,0c0.036-0.013,0.016-0.09,0.043-0.135
	c0.076-0.051,0.136-0.111,0.136-0.136c0-0.026,0.062-0.066,0.137-0.092c0.016-0.022,0.041-0.177,0.042-0.179
	c0.052-0.033,0.277-0.019,0.321-0.049c0-0.049-0.001-0.103,0-0.118c0-0.015-0.001-0.024-0.003-0.031c0-0.008,0.042-0.05,0.09-0.074
	l0.002-0.001c0.019-0.048-0.032-0.094-0.002-0.134l0.011-0.017c0.044,0.033,0.098,0.005,0.115-0.062l0.011-0.012l0.09-0.045
	l0.018-0.051c-0.011-0.071,0.021-0.129,0.073-0.129c0.01-0.031-0.027-0.163-0.004-0.179l0.016-0.015
	c0.067,0.006,0.123,0.006,0.123-0.002c0-0.008,0.062-0.023,0.14-0.017l0.042-0.015l0.044-0.09l0.117-0.042
	c0.087-0.002,0.156-0.036,0.154-0.073c0-0.036,0.007-0.067,0.016-0.067c0.01,0,0.03,0.006,0.03,0.015
	c0,0.008-0.158,0.071-0.351,0.123l0.397-0.139c0.042-0.015,0.144,0.025,0.183-0.002l0.013-0.009
	c-0.007-0.068-0.005-0.125,0.003-0.125c0.009,0,0.029-0.021,0.029-0.045c0-0.024,0.02-0.045,0.044-0.045
	c0.027,0,0.048-0.021,0.045-0.046c0-0.025,0.009-0.044,0.018-0.044s0.014-0.033-0.005-0.073c-0.02-0.042,0.124-0.16,0.124-0.167
	c0-0.009,0.002-0.016,0.004,0.001c0.003,0.018,0.087,0.005,0.087-0.003c0-0.007,0.005-0.031,0.01-0.034
	c0.005-0.001,0.077-0.086,0.126-0.086c0.077,0.023-0.097,0.083,0.046,0.043l0.044-0.135l0.062-0.021
	c0.09,0.011,0.167,0.012,0.167,0.004c0-0.008,0.007-0.03,0.014-0.03c0.009,0,0.04,0.032,0.05,0.073l0.072-0.03
	c0.025-0.074,0.066-0.134,0.091-0.135c0.025-0.001,0.062-0.041,0.082-0.089l0.009-0.002c0.094-0.024,0.085,0.073,0.139,0.044
	c0.032-0.021,0.021-0.101,0.042-0.135V6.593c0.075-0.049,0.136-0.097,0.136-0.104s0.038-0.035,0.084-0.043
	c0.046-0.008,0.19-0.041,0.19-0.05c0-0.008,0.047-0.022,0.104-0.012l0.034-0.018c0,0,0.036-0.17,0.042-0.182
	c0.074-0.025,0.114-0.089,0.085-0.144c-0.029-0.056,0.049-0.042,0.049-0.051c0-0.007-0.007-0.03-0.016-0.03
	c-0.005,0-0.03-0.004-0.03-0.013c0-0.009,0.007-0.031,0.016-0.032c0.009,0,0.03-0.02,0.028-0.044c0-0.025,0.037-0.074,0.083-0.109
	c0.046-0.036,0.1-0.079,0.1-0.088c0-0.008,0.041-0.025,0.094-0.018c0.053,0.005,0.226,0.037,0.226,0.044
	c0,0.009-0.037,0.021-0.082,0.012l0.128-0.027c0.131-0.03-0.027,0.019,0.046,0.044l0.041,0.012c0.053-0.008,0.096-0.039,0.096-0.068
	c0-0.03,0.009-0.092,0.021-0.106c0.013-0.014,0.089-0.109,0.114-0.109c0.025-0.001,0.046,0.007,0.046,0.016
	c0,0.006-0.024,0.022-0.053,0.016l0.098-0.033c0.052-0.018,0.087,0.023,0.139-0.001c-0.002-0.049,0.02-0.09,0.044-0.09
	c0.024,0,0.087-0.062,0.135-0.136l0.075-0.037c-0.014,0.068-0.02,0.125-0.011,0.125c0.009,0,0.031-0.021,0.031-0.045
	c0-0.025,0.049-0.04,0.109-0.031l0.027-0.016l-0.001-0.089l0.044-0.025c0.075-0.013,0.139-0.029,0.139-0.037
	c0-0.007-0.009-0.037-0.018-0.044c-0.009-0.008,0.016-0.038,0.016-0.044c0-0.009,0.023-0.029,0.05-0.027
	c0.026,0.001,0.087-0.011,0.087-0.02c0-0.008,0.042-0.033,0.094-0.037c0.052-0.005,0.181,0.01,0.181,0.019
	c0,0.008,0.062,0.035,0.139,0.042l0.044-0.015c0.071-0.025-0.089-0.071,0.047-0.046c0.099,0.021-0.123,0.09,0.046,0.045l0.044-0.09
	l0.054-0.02c0.046,0.009,0.083,0.011,0.083,0.004c0-0.009,0.015-0.043,0.03-0.058c0.018-0.015,0.106-0.07,0.106-0.079
	c0-0.007,0.008-0.03,0.015-0.03c0.009,0,0.033-0.02,0.035-0.044c0.004-0.025,0.094-0.07,0.159-0.045l0.019-0.003
	c0.101-0.024-0.117-0.054,0.044-0.045c0,0,0.02,0.073,0.094,0.045c-0.001-0.051,0.056-0.101,0.126-0.113l0.01-0.023
	c0-0.049,0.024-0.063,0.057-0.032l0.033-0.014c0.011-0.005-0.016-0.127,0-0.135c0.046-0.029,0.089,0.03,0.137-0.001
	c0.021-0.016,0.008-0.127,0.043-0.135c0.139-0.042-0.026,0.02,0.048,0.045c0.05-0.002,0.091,0.005,0.091,0.014
	c0,0.007,0.042,0.008,0.092-0.017l0.072-0.018c0.086,0.008,0.156,0.022,0.156,0.031c0,0.009,0.03,0.002,0.066-0.031l0.07,0.014
	c0.025,0.025,0.067,0.014,0.091-0.022c0.024-0.039,0.054-0.068,0.062-0.068s0.031-0.021,0.033-0.045
	c0.004-0.023,0.087-0.096,0.146-0.101c0.059-0.007,0.215,0.014,0.215,0.022c0,0.008,0.022,0.026,0.048,0.024
	c0.026-0.003,0.091,0.011,0.091,0.019c0,0.009,0.041,0.029,0.09,0.028l0.004,0.002c0.05,0.022,0.089,0.036,0.089,0.029
	c0-0.01,0.024-0.031,0.055-0.03s0.082-0.01,0.082-0.018s0.061-0.023,0.133-0.015l0.05-0.018l0.135-0.048
	c-0.048,0.001-0.089,0.009-0.089,0.018s0.061,0.033,0.133,0.037l0.05-0.008c0.025-0.051,0.074-0.091,0.11-0.092
	c0.035,0,0.117,0.007,0.117,0.015c0,0.008,0.026,0.027,0.057,0.027c0.03-0.003,0.08,0.008,0.082,0.016
	c0,0.009,0.021,0.029,0.046,0.029c0.024,0,0.046-0.007,0.046-0.015c0-0.009,0.002-0.02,0.006-0.008l0.087,0.021l0.116,0.026
	c0.061-0.04,0.112-0.066,0.112-0.058c0,0.009,0.005,0.03,0.016,0.03c0.007,0,0.004-0.014-0.024-0.029
	c-0.028-0.016,0.098-0.011,0.098-0.001c0.001,0.008,0.022,0.028,0.048,0.028c0.024,0,0.046,0.007,0.046,0.015
	c0,0.009-0.032,0.027-0.071,0.025l0.116-0.042c0.12-0.042,0.062,0.062,0.184,0.043c0-0.002-0.07-0.07,0.093-0.045
	c0,0,0.005,0.073,0.091,0.043c0.097-0.035-0.11-0.055,0.046-0.045c0.05,0.024,0.09,0.036,0.09,0.03c0-0.009,0.02-0.033,0.045-0.035
	c0.024-0.002,0.139-0.05,0.139-0.058c0-0.008,0.021-0.01,0.046,0.014s0.065,0.044,0.092,0.044c0.025-0.001,0.054-0.047,0.064-0.102
	l0.072,0.01c0.009,0.001,0.015,0.104,0.093,0.089l0.044-0.09c0.054-0.021,0.082,0.017,0.137-0.001
	c0.137-0.05-0.154-0.047,0.046-0.046l0.1-0.001c-0.003,0.074,0.017,0.099,0.044,0.056l0.086,0.032l0.092,0.133
	c0.057,0.012,0.075-0.086,0.185-0.046l0.046,0.089l0.021,0.012c0.064,0.017,0.117,0.038,0.117,0.047
	c0,0.008-0.005,0.008-0.013-0.017c-0.009-0.025,0.149-0.037,0.149-0.029c0,0.008,0.024,0.028,0.056,0.025
	c0.029-0.001,0.081,0.009,0.081,0.019c0,0.008,0.063,0.022,0.141,0.016c0.076-0.008,0.272,0.016,0.272,0.025
	c0,0.008,0.029,0.027,0.066,0.025c0.035-0.003,0.116,0.01,0.116,0.017c0,0.008,0.036-0.001,0.082-0.038L32.082,4.2
	c0,0.049,0.003,0.077,0.003,0.063c0-0.015,0.089-0.013,0.089-0.003c0,0.008,0.069,0.038,0.153,0.052l0.031,0.019
	c0.013,0.007,0.035,0.083,0.047,0.089l0.048,0.02c0.074-0.011,0.134-0.014,0.134-0.005s0.019,0.031,0.038,0.036
	c0.021,0.002,0.101,0.044,0.101,0.051c0,0.009,0.05,0.02,0.108,0.006l0.03,0.023c0,0.048,0.021,0.088,0.046,0.088
	s0.044,0.061,0.044,0.132l0.004,0.001c0.097,0.043,0.011-0.033,0.047-0.044l0.031-0.013c0.058,0.005,0.104,0.017,0.104,0.027
	c0,0.008-0.045,0.023-0.102,0.017l0.147-0.033c0.131-0.027-0.024,0.02,0.046,0.045c0.056,0.016,0.084-0.021,0.139-0.003
	c0.014,0.006,0.033,0.087,0.046,0.09l0.015,0.003c0.04-0.026,0.083-0.049,0.092-0.05c0.009,0,0.035,0.04,0.043,0.086l0.035,0.048
	c0.052,0,0.104,0.187,0.034,0.103c-0.071-0.084,0.089-0.001,0.072,0.013c-0.016,0.016,0.039,0.023,0.102-0.025l0.022,0.042
	c0.034,0.067,0,0.204,0.048,0.268c0.043,0.063,0.008-0.061,0.137-0.047l0.039,0.005c-0.046,0.072-0.046,0.122,0.002,0.109
	l0.052,0.02l0.094,0.134c0.034,0.013,0.112-0.024,0.137,0c0.064,0.052,0.057,0.182,0.14,0.221c0.043,0.021-0.072,0.044-0.044,0.09
	c0.102,0.024,0.156,0.072,0.123,0.107l0.018,0.072c0.05,0.024,0.11,0.191,0.135,0.373l0.007,0.091L34.8,6.535l0.011,0.112
	l0.015,0.067l0.005,0.061l0.05,0.051l-0.015,0.046l0.008,0.022l0.041,0.028l-0.015,0.046l0.074,0.082l-0.022,0.067l0.05,0.052
	l0.028,0.034l-0.007,0.118l0.065,0.065l0.02,0.035l0.012,0.076l-0.018,0.052l0.058,0.072c0.024,0,0.027,0.049,0.027,0.056
	c0,0.008-0.041,0.059-0.035,0.079c0.008,0.021,0.091,0.129,0.098,0.128c0.011,0,0.03,0.029,0.028,0.064
	c-0.002,0.035,0.013,0.115,0.021,0.115c0.008,0,0.03,0.021,0.03,0.045c0,0.023-0.008,0.045-0.015,0.045
	c-0.008,0-0.026-0.022-0.021-0.053l0.038,0.142l0.016,0.065c-0.007,0.088-0.021,0.159-0.03,0.159c-0.007,0-0.028,0.029-0.024,0.064
	c0.001,0.036-0.011,0.115-0.019,0.115c-0.007,0-0.029,0.029-0.029,0.065c0.002,0.034,0.01,0.086,0.022,0.104
	c0.009,0.019,0.019,0.055,0.009,0.055c-0.009,0.001-0.026,0.074-0.021,0.164c0.004,0.091,0.038,0.374,0.029,0.374
	c-0.01,0-0.034,0.029-0.036,0.064c-0.001,0.037,0.015,0.117,0.023,0.117c0.007,0,0.032,0.048,0.036,0.108l-0.006,0.025
	c-0.025,0.05-0.037,0.089-0.028,0.089s0.03,0.041,0.03,0.09l0.016,0.044c0.042,0.073,0.071,0.134,0.062,0.134
	c-0.008,0-0.034,0.019-0.038,0.041c-0.003,0.022-0.042,0.14-0.051,0.14c-0.007,0-0.03,0.021-0.03,0.045s-0.008,0.045-0.015,0.045
	c-0.009,0-0.031,0.046-0.033,0.102l-0.041,0.122l-0.052,0.146c0.004-0.056,0.007-0.094,0.007-0.084c0,0.008,0.02,0.088,0.041,0.161
	c0.023,0.074,0.048,0.182,0.039,0.182s-0.029,0.02-0.029,0.044s0.007,0.045,0.016,0.045s0.03,0.007,0.03,0.015
	s-0.002,0.034-0.004,0.038c-0.004,0.005,0.05,0.062,0.046,0.089c0,0.03,0,0.08-0.011,0.08c-0.007,0-0.028,0.024-0.028,0.055
	c0,0.03-0.041,0.08-0.09,0.08c-0.008,0.036,0.087,0.116,0.048,0.226c-0.052,0-0.093,0.028-0.095,0.061
	c-0.001,0.035-0.048,0.164-0.057,0.164c-0.007,0-0.03,0.02-0.03,0.044c0,0.024-0.005,0.045-0.014,0.045s-0.024,0.056-0.018,0.123
	l-0.013,0.012c-0.032,0.025-0.161-0.001-0.182,0.046l-0.04,0.093c0.022,0.122,0.037,0.221,0.028,0.221
	c-0.008,0-0.032,0.057-0.035,0.125l-0.038,0.1l-0.09,0.045c-0.021,0.049,0.028,0.091,0,0.135c-0.05,0.001-0.091,0.021-0.091,0.045
	c0,0.025-0.039,0.062-0.087,0.081l-0.004,0.01c0,0.05-0.04,0.091-0.09,0.091l-0.03,0.076c0.041-0.017,0.072,0.048,0.069,0.146
	l-0.036,0.092c-0.05,0.001-0.092,0.024-0.092,0.052c0.001,0.029-0.037,0.099-0.087,0.12l-0.002,0.009
	c-0.021,0.051,0.026,0.086,0.002,0.136c-0.074,0.05-0.137,0.111-0.135,0.135c0,0.025-0.021,0.044-0.048,0.046
	c-0.025,0-0.045,0.02-0.045,0.045c0.002,0.025-0.04,0.045-0.091,0.047l-0.018,0.042c0.011,0.075,0.013,0.137,0.006,0.137
	c-0.009,0-0.03,0.007-0.03,0.016c0,0.008-0.018,0.003-0.037-0.028l-0.056,0.014c-0.026,0.024,0.004,0.09,0.064,0.146l-0.062,0.033
	c-0.124,0.061-0.035,0.23-0.089,0.359c-0.001,0.003-0.136,0.046-0.136,0.046c-0.041,0.087,0.012,0.192-0.041,0.27
	c-0.036,0.045-0.087,0.012-0.139,0.047h-0.002c-0.023,0.049-0.085,0.089-0.135,0.091c-0.041,0.067-0.005,0.273-0.041,0.359
	c-0.101,0.075-0.183,0.175-0.181,0.226l-0.009,0.005c-0.071,0.022-0.126,0.062-0.126,0.086c0,0.023,0.035,0.031,0.08,0.015
	l-0.036,0.073l-0.181,0.092c-0.037,0.079,0.03,0.185,0.003,0.27c-0.012,0.033-0.095,0.013-0.136,0.046
	c-0.08,0.057,0.13,0.046,0.046,0.09c-0.087,0.042-0.005,0.014-0.044,0.089c-0.004,0.003-0.182,0.137-0.182,0.137
	c-0.043,0.078-0.004,0.233-0.043,0.314c-0.001,0-0.212,0.166-0.227,0.181c-0.011,0.007-0.032,0.083-0.044,0.091
	c-0.03,0.017-0.123,0.02-0.137,0.046l-0.023,0.038c0.014,0.079,0.018,0.141,0.009,0.141c-0.007,0-0.03,0.03-0.03,0.064
	c0.002,0.036-0.005,0.115-0.012,0.115c-0.01,0-0.03,0.021-0.03,0.046c0,0.024-0.008,0.044-0.015,0.044
	c-0.009,0-0.041,0.018-0.052,0.039c-0.01,0.021-0.081,0.048-0.152,0.043l-0.009,0.01l-0.016,0.012
	c0.033,0.042,0.051,0.082,0.037,0.088c-0.013,0.005-0.065,0.04-0.065,0.05c0,0.008-0.021,0.029-0.047,0.029
	c-0.024,0.001-0.044,0.03-0.04,0.063c0.003,0.034-0.011,0.072-0.019,0.072c-0.009,0.001-0.051,0.031-0.076,0.069
	c-0.024,0.036-0.051,0.068-0.06,0.068c-0.008,0-0.025-0.032-0.02-0.07c0.007-0.038-0.058-0.012-0.058-0.004v0.096
	c0,0.038-0.02,0.067-0.044,0.068c-0.024,0-0.065,0.03-0.091,0.069c-0.024,0.035-0.067,0.068-0.09,0.068
	c-0.027,0-0.047,0.04-0.047,0.09l-0.003,0.007c-0.048,0.021-0.087,0.045-0.087,0.054s-0.006,0.029-0.015,0.029
	s-0.032,0.008-0.032,0.016c0,0.008-0.012,0.042-0.029,0.056c-0.02,0.016-0.105,0.073-0.105,0.08c0,0.009-0.04,0.03-0.09,0.03
	c-0.021,0.018,0.022,0.12,0.002,0.135c-0.051,0.028-0.087-0.024-0.139,0.002c0,0-0.036,0.164-0.045,0.179l-0.012,0.021
	c-0.045,0.014-0.078,0.033-0.078,0.041c0,0.009-0.02,0.029-0.045,0.03c-0.024,0-0.046,0.007-0.046,0.015
	c0,0.01-0.02,0.03-0.046,0.03c-0.025,0.001-0.066,0.062-0.091,0.136l-0.005,0.011c-0.071,0.044-0.13,0.087-0.13,0.096
	c0,0.008-0.021,0.029-0.046,0.029c-0.023,0.002-0.045,0.041-0.045,0.09l-0.033,0.019c-0.057-0.01-0.104-0.011-0.104-0.002
	c0,0.008-0.02,0.032-0.044,0.033c-0.023,0.003-0.152-0.002-0.172-0.058l-0.059,0.011c0,0.05-0.041,0.094-0.093,0.096
	c-0.051,0.003,0.048,0.047,0.048,0.056c0,0.008,0.002,0.04,0.002,0.052v0.038c0,0.009-0.021,0.029-0.046,0.029
	c-0.025,0-0.065,0.061-0.091,0.135c-0.018,0.012-0.113,0.023-0.137,0.046c-0.035,0.035,0,0.104-0.042,0.135
	c-0.045,0.029-0.091-0.018-0.139,0.001l-0.046,0.09l-0.027,0.018c-0.06,0.016-0.107,0.035-0.107,0.043
	c0,0.009-0.041,0.018-0.091,0.003l-0.046,0.028l-0.045,0.134c-0.052,0.025-0.085-0.018-0.139,0.002
	c-0.07,0.024,0.087,0.07-0.046,0.044l-0.096-0.019c0.027-0.013,0.052-0.019,0.052-0.009c0,0.008-0.021,0.029-0.046,0.029
	c-0.025,0-0.046,0.009-0.046,0.016c0,0.009,0.008,0.016,0.02-0.002l-0.064-0.012c-0.133-0.026,0.023,0.019-0.046,0.045
	c-0.055,0.019-0.086-0.021-0.137,0.002c-0.017,0.005-0.036,0.085-0.045,0.09c-0.128,0.041-0.223-0.001-0.32,0.047
	c0.001,0.05-0.019,0.091-0.045,0.091c-0.024,0-0.044,0.042-0.044,0.09c-0.11,0.046-0.002-0.036-0.046-0.045
	c-0.099-0.019,0.029,0.068-0.045,0.136c-0.002,0.001-0.091,0.046-0.091,0.046c-0.037,0.065,0.013,0.138-0.044,0.18l-0.093,0.001
	c-0.068,0.024,0.087,0.07-0.044,0.044c-0.103-0.021,0.115-0.055-0.046-0.042c0,0-0.015,0.069-0.093,0.044
	c-0.071-0.023,0.086-0.073-0.044-0.043l-0.144,0.031c0.053,0.007,0.096,0.007,0.096-0.001c0-0.007-0.062-0.035-0.139-0.043
	l-0.042,0.015l-0.091,0.135l-0.036,0.033c-0.029,0.007-0.055,0.02-0.055,0.028c0,0.009-0.02,0.03-0.046,0.031
	c-0.025,0-0.047,0.007-0.045,0.015c0,0.009-0.014,0.042-0.033,0.057c-0.016,0.016-0.103,0.071-0.103,0.081
	c0,0.008-0.02,0.023-0.043,0.016c-0.024-0.006-0.094,0.021-0.094,0.03c0,0.008-0.184,0.045-0.404,0.066l-0.1-0.03
	c-0.075-0.028,0.094-0.085-0.047-0.045c-0.041,0.011-0.03,0.169-0.044,0.18c-0.026,0.021-0.102-0.013-0.137,0.001
	c-0.025,0.049-0.052,0.09-0.061,0.09c-0.007,0-0.03,0.02-0.028,0.044c0,0.024-0.007,0.045-0.016,0.045
	c-0.008,0-0.03,0.008-0.03,0.016c0,0.008-0.05,0.024-0.112,0.018c-0.06-0.005-0.207,0.022-0.207,0.031
	c0,0.008-0.021,0.029-0.047,0.03c-0.024,0-0.046,0.007-0.046,0.015c0,0.008-0.016,0.034-0.035,0.036c-0.02,0.004-0.1,0.08-0.1,0.13
	l-0.074,0.016c-0.159-0.056-0.293-0.095-0.293-0.087c0,0.008-0.02,0.03-0.044,0.031c-0.025,0-0.047,0.007-0.047,0.015
	c0,0.009,0.017-0.002,0.036-0.043l-0.128,0.029c-0.023,0.025-0.044,0.054-0.044,0.062c0,0.009-0.067,0.02-0.15,0.007l-0.079,0.024
	l-0.026,0.007c-0.061,0.047-0.108,0.078-0.11,0.069c0-0.007-0.025-0.027-0.057-0.027c-0.03,0.002-0.08-0.021-0.08-0.046
	c-0.002-0.025-0.009-0.045-0.016-0.045c-0.009,0-0.032,0.008-0.032,0.016c0,0.008-0.074,0.021-0.167,0.012l-0.061,0.021l-0.09,0.134
	c-0.05,0.027-0.085-0.019-0.137,0.002c-0.025,0.05-0.069,0.087-0.098,0.083c-0.028-0.002-0.048,0.079-0.003,0.165l-0.033,0.024
	c-0.05,0-0.11-0.028-0.134-0.062l-0.051,0.018l-0.044,0.09l-0.116,0.038c-0.012-0.045-0.021-0.074-0.021-0.066
	c0,0.009-0.021,0.028-0.048,0.024c-0.026-0.001-0.088,0.014-0.088,0.021c0,0.01-0.02,0.031-0.046,0.031
	c-0.025,0-0.045,0.007-0.045,0.015c0,0.009-0.041,0.026-0.09,0.023c-0.05-0.005-0.185,0.017-0.185,0.025
	c0,0.009-0.098,0.013-0.218-0.008c0,0-0.002,0.003-0.01-0.005c-0.077-0.064-0.137-0.043-0.137-0.043
	c-0.113,0.028-0.069-0.04-0.092-0.043l-0.053-0.012c-0.071,0.007-0.13,0.007-0.13-0.001c0-0.009-0.073-0.018-0.162-0.006
	l-0.069-0.022l-0.128-0.042c0.044,0,0.083,0.004,0.083,0.013c0,0.008-0.021,0.028-0.046,0.029c-0.026,0-0.046,0.009-0.046,0.017
	s0.009-0.002,0.02-0.041l-0.11,0.026l-0.046,0.09c-0.059,0.006-0.082-0.087-0.183-0.043l-0.034,0.014
	c-0.005,0.066-0.032,0.122-0.057,0.122c-0.025,0.001-0.046,0.007-0.046,0.016c0,0.008-0.054-0.002-0.119-0.041l-0.154,0.028
	c0,0-0.042,0.104-0.183,0.092l-0.034-0.004c-0.007-0.071-0.042-0.132-0.078-0.135c-0.035-0.001-0.119,0.014-0.119,0.023
	c0,0.007-0.042,0.032-0.095,0.038c-0.052,0.003-0.18-0.013-0.18-0.022c0-0.007-0.025-0.028-0.055-0.027
	c-0.03,0.002-0.082-0.008-0.082-0.016c0-0.008-0.031-0.027-0.066-0.022c-0.038,0.003-0.119-0.046-0.119-0.096
	c-0.088-0.022-0.09,0.045-0.09,0.045c-0.156,0.012,0.05-0.012-0.046-0.043l-0.137-0.045c-0.178,0.028-0.321,0.042-0.321,0.035
	c0-0.007-0.014-0.033-0.028-0.039c-0.016-0.003-0.11-0.042-0.11-0.048c0-0.009-0.05-0.027-0.108-0.021
	c-0.061,0.007-0.213-0.013-0.213-0.021c0-0.009-0.025-0.029-0.057-0.028c-0.03,0.002-0.082-0.008-0.082-0.016
	c0-0.009-0.016-0.019-0.035-0.004c-0.021,0.015-0.102,0.013-0.102,0.005s-0.021-0.029-0.046-0.029s-0.046-0.006-0.046-0.015
	c0-0.007,0.005-0.018,0.013-0.004c0.005,0.014-0.103,0.013-0.103,0.005c0-0.007-0.064-0.036-0.142-0.043l-0.043,0.016l-0.098,0.033
	c0.031,0.007,0.053,0.005,0.053-0.003s-0.021-0.029-0.046-0.029c-0.024,0-0.046,0.007-0.046,0.016c0,0.007-0.02,0.028-0.044,0.03
	c-0.027,0-0.046,0.007-0.046,0.016c0,0.008-0.042,0.009-0.092-0.015l-0.14-0.033c-0.099,0.045-0.169,0.03-0.152-0.031l-0.121-0.067
	c-0.063-0.037,0.091-0.029,0.045-0.09c-0.05,0-0.112-0.029-0.139-0.065c-0.025-0.037-0.066-0.068-0.09-0.067
	c-0.025,0-0.046-0.006-0.046-0.014s-0.043-0.029-0.093-0.029c-0.071-0.024,0.085-0.073-0.046-0.045
	c-0.074,0.017,0.091,0.075-0.044,0.045L16.632,22.2l-0.119-0.025c-0.135,0.016-0.247,0.021-0.247,0.014
	c-0.002-0.008-0.03-0.027-0.067-0.025c-0.036,0.001-0.117-0.01-0.117-0.018c0-0.007-0.061-0.021-0.134-0.012l-0.049-0.015
	c-0.002-0.049-0.038-0.09-0.082-0.09c-0.042,0.001-0.17-0.038-0.195-0.086c-0.146-0.027,0.038,0.013-0.044,0.045
	c-0.051,0-0.092,0.008-0.092,0.015c0,0.009-0.03-0.007-0.069-0.052l-0.023-0.007l-0.051-0.017c-0.073,0.01-0.131,0.012-0.131,0.005
	c0-0.009-0.021-0.03-0.046-0.03s-0.046-0.006-0.046-0.014c0-0.008-0.021-0.03-0.046-0.03c-0.025,0.001-0.046-0.02-0.046-0.044
	c0-0.024-0.021-0.045-0.046-0.044c-0.025,0-0.044-0.028-0.042-0.063c0.002-0.035-0.028-0.043-0.058-0.011l-0.038-0.013
	c-0.011-0.004,0.009-0.126-0.002-0.133c-0.027-0.024-0.104,0.012-0.137,0c-0.016-0.006-0.046-0.132-0.048-0.134
	c-0.05,0-0.09-0.006-0.09-0.014c-0.002-0.008-0.023-0.051-0.05-0.076c-0.028-0.024-0.137-0.094-0.137-0.101
	c0-0.009-0.007-0.03-0.016-0.03c-0.007,0-0.023-0.032-0.018-0.072c0.008-0.038-0.021-0.109-0.03-0.107
	c-0.005,0-0.03-0.007-0.03-0.015c0-0.008-0.007-0.031-0.014-0.031c-0.009,0-0.012,0.043,0.011,0.091l-0.089-0.045
	c-0.032-0.018-0.022-0.114-0.046-0.133h-0.092V20.88c-0.024-0.047-0.053-0.087-0.06-0.087c-0.009,0-0.046-0.067-0.064-0.15
	l-0.016-0.027c-0.05,0-0.082-0.038-0.073-0.084l-0.02-0.05l-0.138-0.089c-0.036-0.122,0.034-0.281-0.003-0.402
	c-0.052-0.024-0.092-0.063-0.092-0.089c0-0.024-0.009-0.045-0.016-0.045c-0.009,0-0.039-0.023-0.048-0.052
	c-0.008-0.027-0.076-0.087-0.076-0.095c-0.002-0.01-0.007-0.03-0.017-0.03c-0.007,0-0.019-0.151-0.005-0.336l-0.03-0.157
	c-0.052-0.025-0.066-0.081-0.033-0.126l-0.016-0.009c-0.011-0.006-0.092-0.042-0.092-0.042c-0.017-0.062,0.06-0.128,0.044-0.135
	c-0.009-0.006-0.09-0.043-0.09-0.043l-0.018-0.118c0.007-0.134,0.021-0.242,0.028-0.242c0.009,0,0.032-0.02,0.03-0.045
	c0-0.024-0.009-0.045-0.016-0.045c-0.007,0-0.021-0.047-0.013-0.104c0.011-0.059,0.025-0.224,0.025-0.24
	c0-0.018,0-0.054,0.002-0.103c0.003-0.048,0.003-0.09,0.01-0.09c0.009,0,0.067-0.012,0.114-0.023
	c0.046-0.015-0.131-0.041-0.131-0.067c0-0.024,0.007-0.043,0.016-0.043c0.009,0,0.023-0.047,0.015-0.104l0.014-0.032
	c0.003-0.016,0.087-0.035,0.092-0.046c0.032-0.118-0.125-0.097-0.048-0.135l0.075-0.038c-0.018-0.052-0.025-0.096-0.016-0.096
	c0.01,0,0.018-0.102,0.003-0.225l0.023-0.089c0.003-0.012,0.087-0.033,0.092-0.045l0.013-0.035
	c-0.009-0.056-0.013-0.092-0.011-0.082c0.001,0.01,0.032-0.05,0.018-0.033c-0.012,0.018-0.16,0.009-0.16,0.001
	c0-0.008-0.05-0.025-0.111-0.02l-0.025-0.008c-0.071-0.025,0.085-0.075-0.046-0.044l-0.075,0.014
	c0.018,0.017,0.028,0.023,0.028,0.016c0-0.009-0.02-0.029-0.044-0.029c-0.027,0.001-0.054-0.02-0.062-0.045
	c-0.007-0.026-0.076-0.035-0.076-0.028c0,0.009-0.021,0.028-0.05,0.024c-0.026-0.001-0.089,0.014-0.089,0.022
	s-0.018,0.029-0.044,0.029c-0.025,0-0.046,0.007-0.046,0.016c0,0.009-0.042,0.024-0.096,0.016l-0.041,0.015
	c-0.094,0.033,0.106,0.054-0.046,0.046l-0.044-0.089c-0.093-0.035-0.165-0.004-0.231-0.044l-0.046-0.088l-0.085-0.013
	c-0.078,0.058-0.142,0.099-0.142,0.089c0-0.007-0.021-0.029-0.046-0.029c-0.024,0-0.067-0.059-0.094-0.132
	c-0.048-0.027-0.085,0.018-0.137,0c-0.073-0.023,0.085-0.074-0.046-0.044c-0.067,0.014,0.083,0.089-0.046,0.045l-0.048-0.089
	l-0.005-0.005c-0.073-0.021-0.131-0.045-0.131-0.052c0-0.009-0.002-0.02-0.002-0.005c-0.001,0.014-0.088,0.014-0.088,0.005
	c0-0.008-0.03-0.029-0.067-0.027c-0.036,0.003-0.116-0.008-0.116-0.016c-0.002-0.008-0.009-0.029-0.016-0.029
	c-0.008,0-0.035,0.015-0.042,0.033c-0.007,0.018-0.08,0.006-0.08-0.003s-0.021-0.029-0.046-0.029c-0.027,0-0.046-0.005-0.046-0.014
	c-0.001-0.009-0.018-0.033-0.039-0.037c-0.02-0.003-0.315-0.189-0.315-0.197s-0.071-0.192-0.096-0.192S10.036,15.586,10.205,15.401"
	/>
<path fill="#FBB619" d="M34.38,7.76c-0.009,0.001-0.008,0.045,0.007,0.078c0.013,0.031,0.024,0.077,0.024,0.102
	c0,0.024-0.021,0.045-0.028,0.045c-0.011,0.001-0.018,0.023-0.018,0.03c0.002,0.009,0.024,0.014,0.032,0.014
	c0.007,0,0.021,0.111,0.02,0.151c0,0.04,0.021,0.071,0.03,0.071c0.007,0,0.007,0.125-0.006,0.144
	c-0.014,0.021-0.002,0.037,0.006,0.037c0.009,0,0.018,0.217,0.02,0.298c0,0.082,0.023,0.149,0.031,0.149
	c0.01,0-0.024,0.046-0.074,0.102l-0.091,0.08l-0.021,0.015c0.012,0.091,0,0.164-0.01,0.164c-0.007,0-0.016-0.039-0.016-0.088
	l0.048,0.133l0.027,0.072c0.012,0.108,0.044,0.196,0.051,0.196c0.01,0,0.026,0.079,0.023,0.114
	c-0.002,0.037,0.018,0.066,0.024,0.064c0.009,0,0.017,0.024,0.017,0.031s0.152,0.091,0.039,0.075c-0.032-0.004,0.048-0.089,0.018,0
	c-0.03,0.09-0.054,0.186-0.054,0.195c0,0.007-0.028,0.024-0.063,0.035l0.02,0.069l0.002,0.005c0.05,0.046,0.069,0.085,0.06,0.085
	c-0.008,0-0.005,0.074,0.008,0.162l-0.02,0.061c-0.052,0.001-0.097,0.052-0.095,0.082s-0.018,0.055-0.026,0.055s0,0.239,0.02,0.531
	l-0.028,0.096c0,0-0.091,0.043-0.091,0.047c0,0.049-0.021,0.089-0.029,0.09c-0.008,0-0.048,0.142-0.052,0.172
	c-0.004,0.029-0.028,0.053-0.037,0.053s-0.019,0.069,0,0.061c0.016-0.01,0.026,0.045,0.021,0.121l-0.034,0.087
	c-0.006,0.012-0.085,0.036-0.091,0.046c-0.029,0.045-0.016,0.134-0.044,0.181l-0.137,0.09c-0.035,0.104,0.023,0.247,0.006,0.359
	c-0.052,0-0.021,0.041-0.029,0.042c-0.011,0-0.018,0.022-0.018,0.047c0,0.024-0.04,0.046-0.09,0.046
	c-0.01,0.087,0.097,0.126,0.048,0.224c-0.05,0-0.091,0.022-0.091,0.047c0,0.023-0.02,0.045-0.046,0.045
	c-0.025,0-0.047,0.021-0.047,0.029c0,0.008-0.06,0.056-0.135,0.106l-0.016,0.024c0.009,0.06-0.023,0.126-0.072,0.147v0.009
	c-0.025,0.096,0.074,0.078,0.047,0.134c-0.051,0-0.094,0.022-0.094,0.03c0,0.008-0.039,0.031-0.087,0.051l-0.001,0.009
	c-0.021,0.053,0.031,0.179,0.001,0.226c-0.011,0.011-0.154,0.025-0.183,0.046c-0.041,0.028-0.021,0.096-0.044,0.135
	c-0.007,0.01-0.086,0.031-0.091,0.045l-0.032,0.075c0.043,0.033,0.078,0.082,0.078,0.09c0,0.008-0.078,0.084-0.081,0.123
	c-0.004,0.039-0.028,0.072-0.038,0.072c-0.007,0-0.014,0.021-0.014,0.03c0,0.008-0.198,0.144-0.257,0.211
	c-0.06,0.067-0.105,0.143-0.105,0.151c0,0.009-0.042,0.015-0.09,0.016l-0.043,0.068c0.048-0.013,0.098,0.013,0.111,0.059
	l-0.021,0.052c-0.052,0-0.106,0.069-0.102,0.109c0.006,0.04-0.03,0.072-0.082,0.072c-0.026,0.021,0.045,0.044-0.044,0.09
	l-0.05,0.024c0.054,0.036,0.074,0.064,0.065,0.064c-0.008,0-0.014,0.023-0.014,0.031s-0.067,0.069-0.076,0.098
	c-0.009,0.029-0.036,0.052-0.045,0.052s-0.016,0.042-0.014,0.09c-0.007,0.01-0.086,0.034-0.091,0.046
	c-0.024,0.035-0.013,0.115-0.044,0.136l-0.041,0.024c-0.078,0.012-0.123,0.062-0.096,0.111c-0.02-0.005-0.083-0.062-0.093-0.043
	l-0.012,0.022c0.007,0.062-0.008,0.113-0.017,0.113s-0.024,0.062-0.021,0.087c0.006,0.026-0.012,0.047-0.022,0.047
	c-0.007,0-0.02,0.051-0.019,0.08c0.002,0.031-0.018,0.056-0.025,0.056c-0.01,0-0.008,0.059,0.003,0.132l-0.017,0.047l-0.092,0.047
	c-0.041,0.12,0.018,0.259-0.087,0.313c-0.05,0.025,0.073,0.037,0.046,0.09c-0.021,0.038-0.104,0.017-0.136,0.046
	c0,0.05-0.061,0.13-0.136,0.181l-0.044,0.066c0.05-0.012,0.091-0.001,0.091,0.023c0,0.025-0.052,0.056-0.082,0.054
	c-0.03-0.005-0.052,0.051-0.046,0.122l-0.008,0.006c-0.077,0.042-0.176-0.006-0.229,0.046c-0.013,0.012-0.028,0.155-0.044,0.18
	c-0.048,0-0.091,0.021-0.091,0.045c0,0.026-0.02,0.046-0.045,0.047c-0.026,0-0.046,0.023-0.046,0.03
	c0,0.009-0.035,0.029-0.079,0.047L30.54,17.75c0,0.049-0.061,0.132-0.135,0.18c-0.015,0.031,0.022,0.105,0,0.135l-0.008,0.009
	c-0.07-0.004-0.166,0.08-0.168,0.096c-0.004,0.018-0.027,0.032-0.035,0.032s-0.015,0.021-0.015,0.046
	c0,0.023-0.021,0.044-0.03,0.044s-0.016,0.021-0.015,0.045c0,0.024-0.021,0.045-0.029,0.045c-0.01,0-0.017,0.022-0.017,0.029
	c0,0.009-0.055,0.054-0.124,0.101l-0.057,0.052c-0.018,0.013-0.023,0.081-0.046,0.089c-0.034,0.013-0.112-0.021-0.137,0.002
	c0.001,0.049-0.02,0.09-0.028,0.09c-0.01,0-0.02,0.048-0.021,0.107l-0.039,0.029l-0.05,0.035c-0.023-0.044-0.042-0.058-0.042-0.049
	c0,0.008-0.021,0.015-0.045,0.015c-0.025,0-0.046,0.04-0.046,0.09c-0.112,0.043,0.003-0.03-0.047-0.043
	c-0.049,0-0.09,0.022-0.09,0.03s-0.041,0.015-0.091,0.015l-0.018,0.014c-0.041,0.067-0.073,0.145-0.073,0.153
	c0,0.007-0.081-0.005-0.183-0.028c-0.033,0.017-0.021,0.113-0.044,0.135c-0.052,0-0.091,0.023-0.091,0.031
	c0,0.009-0.062,0.045-0.072,0.05c-0.011,0.006-0.018,0.051-0.018,0.1c-0.03,0.02-0.156,0.028-0.184,0.046
	c-0.003,0.002-0.044,0.09-0.044,0.09c-0.146,0.04,0.032-0.018-0.048-0.044c-0.056-0.019-0.25,0.032-0.273,0.047
	c-0.024,0.1-0.065,0.18-0.074,0.181c-0.008,0-0.036,0.04-0.059,0.089v0.002l-0.093,0.001l-0.003,0
	c-0.023,0.049-0.062,0.088-0.087,0.088c-0.025,0-0.066,0.042-0.091,0.092l-0.052,0.018c-0.072-0.011-0.122,0.1-0.111,0.242
	l-0.018,0.011l-0.091,0.058c-0.076-0.055-0.137-0.079-0.137-0.071c0,0.009-0.072,0.028-0.158,0.042l-0.024,0.02
	c-0.039,0.025-0.03,0.122-0.045,0.135c-0.051,0-0.092,0.022-0.092,0.031c0,0.008-0.074,0.028-0.082,0.008
	c-0.005-0.02-0.009-0.017-0.009-0.007c0,0.008-0.051,0.019-0.081,0.017c-0.03-0.001-0.055,0.021-0.055,0.029s-0.084,0.021-0.12,0.02
	c-0.035-0.002-0.063,0.036-0.063,0.086c-0.12,0.035-0.057-0.077-0.137-0.043c0,0.049-0.062,0.102-0.088,0.099
	c-0.025-0.004-0.049,0.015-0.049,0.022c0,0.008-0.02,0.015-0.046,0.015c-0.024,0-0.046,0.023-0.045,0.031
	c0,0.008-0.021,0.014-0.045,0.016c-0.025,0-0.056,0.021-0.068,0.044c-0.014,0.025-0.044,0.046-0.066,0.046
	c-0.027,0-0.049,0.022-0.049,0.029c0.002,0.009-0.06,0.023-0.087,0.021c-0.026-0.003-0.05,0.036-0.048,0.085
	c-0.048,0.019-0.14-0.026-0.183,0.002l-0.016,0.01c0.033,0.043-0.009,0.1-0.017,0.109c-0.007,0.01-0.012-0.005-0.012-0.014
	c0-0.009-0.023-0.014-0.032-0.014c-0.007,0-0.015,0.04-0.015,0.089c-0.055,0.007-0.125-0.096-0.229-0.087l-0.044,0.09l-0.061,0.023
	c-0.093-0.012-0.19,0.021-0.215,0.07l-0.072,0.015c-0.036-0.033-0.064-0.036-0.064-0.028c0,0.009-0.02,0.015-0.046,0.015
	c-0.025,0.001-0.045,0.021-0.045,0.045c0,0.025-0.02,0.046-0.046,0.046c-0.024,0-0.046,0.021-0.044,0.03
	c0,0.008-0.098,0.033-0.144,0.026c-0.047-0.004-0.085,0.012-0.085,0.021s-0.021,0.016-0.031,0.016c-0.008,0,0.032-0.041,0.091-0.09
	l-0.152,0.045l-0.045,0.09l-0.033,0.014c-0.057-0.007-0.125,0.028-0.149,0.076v0.002l-0.089,0.029
	c-0.103-0.015-0.186-0.003-0.186,0.004c0.002,0.008-0.049,0.019-0.082,0.018c-0.03,0-0.053,0.021-0.053,0.029
	c0,0.007-0.131,0.028-0.181,0.024c-0.053-0.003-0.09,0.052-0.087,0.125l-0.005,0.001l-0.168,0.032
	c-0.16-0.089-0.298-0.125-0.294-0.09c0.001,0.035-0.014,0.063-0.041,0.063c-0.025,0-0.057,0.038-0.073,0.082l-0.018,0.009
	c-0.078,0.034-0.329,0.031-0.412,0.004c-0.091-0.03,0.106-0.071-0.046-0.044l-0.045,0.09l-0.067,0.042
	c-0.089,0.002-0.16,0.027-0.16,0.036c0,0.009,0.034,0.012,0.073,0.009l-0.121-0.037c-0.064-0.023-0.256-0.016-0.32,0.002
	c-0.025,0.05-0.064,0.091-0.09,0.091c-0.025,0-0.046,0.021-0.046,0.03c0.002,0.009,0.034,0.012,0.071,0.009l-0.115-0.039
	l-0.082-0.027c-0.106,0.017-0.195,0.01-0.195,0c0-0.007,0.036-0.013,0.078-0.013l-0.122,0.043c-0.108,0.038-0.139-0.043-0.139-0.043
	l-0.078-0.014c-0.082,0.008-0.149,0.039-0.149,0.047s-0.085-0.026-0.189-0.075l-0.132,0.048l-0.094,0.032
	c0.027,0.008,0.048-0.008,0.048-0.016c0-0.01-0.051-0.019-0.082-0.017c-0.03,0.001-0.055-0.018-0.055-0.027
	c0-0.008-0.048,0.022-0.108,0.065l-0.028,0.011c-0.049,0.001-0.092,0.023-0.09,0.031c0,0.008,0.012,0.005,0.028-0.004l-0.074-0.025
	l-0.064-0.022c-0.092,0.014-0.165,0.047-0.165,0.055c0,0.009-0.11,0.012-0.105-0.003c0.007-0.014,0.013-0.004,0.013,0.005
	c0,0.007-0.036,0.004-0.055-0.009c-0.02-0.01-0.117,0.006-0.137,0.012c-0.02,0.007-0.037-0.008-0.037-0.016
	c0-0.009-0.021-0.017-0.046-0.017c-0.024,0.002-0.046-0.018-0.046-0.027c0-0.008-0.103-0.016-0.114,0
	c-0.012,0.017-0.023,0.01-0.023,0.001c0-0.008-0.089-0.062-0.106-0.078c-0.018-0.013-0.016-0.063-0.005-0.082
	c0.011-0.019-0.279,0.003-0.369,0.007c-0.088,0.007-0.163-0.01-0.163-0.019s-0.146-0.014-0.206-0.013
	c-0.063,0-0.114-0.02-0.114-0.029c0-0.008-0.051-0.018-0.083-0.017c-0.03,0.002-0.053-0.019-0.055-0.027
	c0-0.008,0.031-0.012,0.065-0.011l-0.109,0.041l-0.062,0.02c-0.092-0.01-0.167,0.004-0.167,0.012c0,0.009-0.021,0.016-0.03,0.016
	s-0.016-0.022-0.016-0.03c0-0.008-0.041-0.054-0.091-0.102l-0.001-0.002l-0.08-0.037c-0.082-0.001-0.149-0.026-0.149-0.035
	c0-0.008-0.085-0.025-0.119-0.02c-0.038,0.003-0.065-0.054-0.065-0.128h-0.002l-0.11-0.041c-0.014,0.047-0.026,0.066-0.026,0.058
	c0-0.008-0.19-0.046-0.236-0.049c-0.046-0.004-0.085-0.028-0.085-0.037c0-0.008-0.1-0.007-0.112,0.007
	C16.91,21.558,16.9,21.548,16.9,21.54s-0.114-0.046-0.141-0.05c-0.023-0.004-0.044-0.029-0.044-0.038
	c0-0.008-0.083-0.012-0.183-0.007l-0.092-0.05c-0.001-0.05-0.021-0.089-0.046-0.089c-0.026,0-0.048-0.021-0.048-0.029
	s-0.089-0.063-0.105-0.077c-0.018-0.015-0.034-0.047-0.034-0.056c0-0.008,0.009-0.006,0.016,0.007l-0.061,0.022l-0.036,0.011
	c-0.057-0.006-0.103-0.031-0.103-0.039c0-0.01,0.035-0.016,0.08-0.015l-0.124,0.044l-0.037,0.012
	c-0.055-0.007-0.108-0.05-0.117-0.099l-0.032-0.045c-0.048-0.024-0.09-0.083-0.09-0.134c-0.037-0.026-0.152-0.024-0.185-0.042
	l-0.001-0.089l-0.045-0.023c-0.078,0.013-0.138,0.003-0.138-0.005s-0.021-0.015-0.046-0.015c-0.025,0.001-0.046-0.02-0.046-0.028
	c0-0.009-0.104-0.043-0.133-0.049c-0.027-0.005-0.051-0.031-0.051-0.038c0-0.009-0.041-0.017-0.093-0.016
	c-0.023-0.02,0.014-0.105,0-0.134h-0.092l-0.032-0.01c-0.009-0.068-0.036-0.124-0.062-0.124c-0.022,0-0.044-0.019-0.044-0.044
	c0-0.023-0.043-0.044-0.092-0.044l-0.05-0.087c0.051-0.05,0.073-0.092,0.064-0.092C14.648,20.07,14.609,20.01,14.604,20
	c-0.005-0.011-0.03-0.019-0.039-0.019s-0.016-0.019-0.016-0.044c0-0.025-0.023-0.044-0.032-0.044s-0.023-0.06-0.021-0.086
	c0.001-0.027-0.032-0.02-0.079,0.015l-0.009-0.019c-0.037-0.076,0.076-0.106,0.044-0.135c-0.051,0.001-0.11-0.075-0.104-0.112
	c0.007-0.037-0.009-0.065-0.018-0.065s-0.018-0.022-0.018-0.03c0-0.009-0.087-0.062-0.106-0.077
	c-0.018-0.015-0.032-0.047-0.032-0.056s-0.021-0.016-0.031-0.016c-0.008,0,0.004-0.059,0.013-0.069
	c0.011-0.011-0.055-0.018-0.046-0.049c0.009-0.033,0.038-0.061,0.062-0.062c0.024,0,0.024-0.068,0.016-0.077
	c-0.009-0.005-0.039-0.011-0.046-0.011c-0.009,0-0.032-0.127-0.011-0.178c0.021-0.049,0.016-0.091,0.005-0.091
	c-0.009,0-0.014-0.02-0.014-0.045c0-0.024-0.039-0.061-0.088-0.079l-0.004-0.009l-0.02-0.039c0.009-0.053-0.005-0.096-0.012-0.096
	c-0.011,0.001-0.05-0.087-0.055-0.104c-0.003-0.016,0.04-0.026,0.096-0.02c0,0,0.013,0.017,0.032-0.011
	c0.053-0.074,0.046-0.096,0.046-0.125c0-0.03,0.021-0.054,0.03-0.054s0.021-0.104,0.02-0.146c-0.005-0.042-0.03-0.078-0.039-0.078
	c-0.007,0-0.014-0.021-0.014-0.045c0-0.024,0.021-0.045,0.03-0.045c0.009,0,0.046-0.148,0.052-0.176
	c0.001-0.027,0.03-0.048,0.037-0.048c0.007,0,0.029-0.128,0.023-0.179c-0.007-0.048,0.01-0.091,0.02-0.091
	c0.008,0,0.016-0.021,0.016-0.046c0-0.023,0.02-0.043,0.03-0.044c0.007,0-0.021-0.034-0.065-0.074l0.032-0.104
	c0,0,0.101-0.036,0.09-0.092c-0.051-0.023-0.094-0.064-0.094-0.088s-0.021-0.044-0.03-0.044c-0.009,0-0.046-0.058-0.052-0.069
	c-0.005-0.011,0.061-0.064,0.085-0.065c0.021-0.002,0.041-0.024,0.041-0.031c0-0.009,0.16-0.142,0.149-0.194
	c-0.007-0.051-0.037-0.092-0.046-0.092c-0.007,0-0.014-0.019-0.014-0.045c0-0.025,0.021-0.045,0.03-0.045
	c0.009,0,0.014-0.041,0.014-0.09l-0.062-0.17c0.009,0.046,0.014,0.071-0.032,0.037c-0.05,0-0.092-0.02-0.092-0.029
	s-0.069-0.002-0.153,0.013l-0.074-0.026l-0.091-0.074c-0.121-0.044,0.004-0.027-0.048-0.015c-0.135,0.029,0.023-0.021-0.048-0.044
	l-0.057-0.019c-0.044,0.012-0.08,0-0.08-0.009c-0.002-0.008-0.021-0.015-0.046-0.014c-0.025,0-0.046-0.022-0.046-0.029
	c0-0.009-0.021-0.015-0.046-0.015s-0.046-0.021-0.046-0.03c0-0.008-0.041,0.026-0.09,0.075l-0.051,0.018
	c-0.073-0.007-0.131,0.007-0.131,0.016c0,0.008-0.041,0.016-0.091,0.016c-0.002,0,0.018,0.064-0.092,0.045
	c0-0.049-0.082-0.123-0.101-0.125c-0.021-0.004-0.037-0.029-0.037-0.037c0-0.008-0.089,0.008-0.195,0.039l-0.034-0.006
	c0-0.05-0.059-0.1-0.087-0.096c-0.026,0.005-0.064-0.03-0.08-0.074L12.533,15.7c-0.116-0.043-0.055,0.061-0.137,0.047l-0.046-0.089
	l-0.021-0.014c-0.064,0.009-0.164,0.014-0.181-0.002c-0.014-0.015-0.069,0.009-0.087,0.028c-0.018,0.021-0.032,0.016-0.032-0.009
	c0-0.024,0.023-0.044,0.03-0.046c0.009,0,0.045-0.06,0.05-0.07c0.007-0.01,0.078-0.014,0.159-0.003l0.034-0.018
	c-0.001-0.05,0.02-0.09,0.044-0.09c0.025-0.002,0.045-0.042,0.045-0.091l0.046-0.026c0.075,0.013,0.138,0.004,0.138-0.005
	c-0.002-0.009,0.048-0.049,0.108-0.09L12.8,15.25c0,0-0.022,0.071,0.094,0.044l0.089-0.136c0.121-0.043-0.01,0.026,0.048,0.044
	c0.077,0.024,0.09-0.045,0.09-0.045c0.087-0.008,0.013,0.072,0.092,0.044c0.011-0.006,0.02-0.1,0.091-0.092
	c0.126,0.049,0.229,0.068,0.229,0.059c0-0.008,0.071-0.027,0.156-0.042l0.027-0.021l0.007-0.008
	c-0.005-0.068,0.011-0.126,0.038-0.126c0.025,0,0.044-0.021,0.044-0.029c0-0.009,0.053-0.019,0.084-0.002
	c0.03,0.017,0.055,0.009,0.055,0s0.044-0.011,0.101-0.003l0.036-0.014l0.044-0.089c0.149-0.047-0.041,0.027,0.046,0.044
	c0.131,0.026-0.027-0.021,0.044-0.045h0.094l0.018-0.012c-0.036-0.043-0.044-0.078-0.036-0.078c0.176,0-0.073,0.01-0.065,0.01
	c0.17-0.032,0.168-0.011,0.218-0.011l0.009-0.008c-0.005-0.07,0.117-0.17,0.152-0.171c0.038-0.002,0.066-0.043,0.064-0.092
	l0.104-0.041c0.144-0.004,0.261-0.03,0.261-0.038c0-0.009,0.003-0.043,0.007-0.077l0.037-0.074l0.226-0.182
	c0.024-0.046,0.012-0.196,0.044-0.225l0.032-0.029c0.084,0.015,0.153,0.007,0.153-0.001c-0.001-0.01,0.105-0.082,0.131-0.106
	c0.027-0.026,0.048-0.068,0.048-0.077c0-0.008,0.04-0.015,0.092-0.016c0.021-0.023-0.014-0.101-0.001-0.135
	c0.01-0.033,0.094-0.019,0.136-0.045l0.021-0.015c0.012-0.041,0.046-0.075,0.055-0.077c0.007,0-0.016-0.098-0.021-0.111
	c-0.007-0.012-0.013-0.043-0.013-0.051c0-0.009,0.023-0.016,0.031-0.016c0.008,0,0.03-0.04,0.049-0.087l0.011-0.003l0.078-0.03
	c0.009,0.04,0.014,0.052,0.014,0.044c0-0.008,0.041-0.015,0.09-0.015c0.069-0.026-0.087-0.072,0.046-0.046
	c0.014,0.003-0.035,0.105,0.045,0.044c0.023-0.019-0.016-0.106,0-0.134c0.051-0.001,0.122-0.1,0.126-0.144
	c0.005-0.044,0.03-0.082,0.039-0.082c0.009,0,0.046-0.042,0.083-0.092c0.037-0.049,0.088-0.091,0.095-0.091
	c0.011,0,0.018-0.02,0.018-0.045c-0.002-0.024,0.02-0.054,0.042-0.068c0.026-0.011,0.048-0.042,0.048-0.066
	c0-0.026,0.018-0.045,0.044-0.046c0.025,0,0.044-0.021,0.044-0.03c0-0.007,0.027,0.018,0.059,0.059l0.034-0.03
	c0.025-0.075,0.009-0.157,0.005-0.164c-0.003-0.01,0.014-0.015,0.023-0.015s0.059-0.099,0.059-0.08
	c0.002,0.018-0.007-0.031-0.018-0.11l0.018-0.035c0.075-0.05,0.137-0.112,0.135-0.137c0-0.024,0.023-0.045,0.03-0.045
	c0.009,0,0.016-0.02,0.014-0.045c0-0.024,0.062-0.066,0.138-0.091c0.043-0.065-0.018-0.131,0.043-0.18l0.051-0.045
	c0.048,0.049,0.103,0.014,0.121-0.077l0.009-0.014c0.052-0.001,0.092-0.022,0.092-0.03s0.046-0.05,0.094-0.086
	c0.048-0.037,0.087-0.086,0.087-0.111c0-0.024,0.041-0.044,0.09-0.045l0.025-0.05c-0.014-0.047,0.016-0.047,0.068-0.003l0.044-0.039
	c-0.002-0.049,0.037-0.11,0.089-0.135h0.001c-0.001-0.049,0.02-0.089,0.045-0.091c0.024,0,0.044-0.021,0.044-0.029
	c0-0.009,0.106-0.089,0.099-0.111c-0.003-0.022,0.032-0.041,0.082-0.041c0.039-0.058-0.007-0.118,0.044-0.135
	c0.051,0,0.092-0.041,0.09-0.09l0.053-0.036c0.096-0.007,0.176-0.033,0.176-0.042s0.039-0.04,0.073-0.064
	c0.035-0.023,0.062-0.082,0.062-0.132c0.06-0.043,0.016,0.062,0.092,0.045l0.009-0.004c0.02-0.047,0.057-0.088,0.082-0.088
	c0.025,0,0.046-0.02,0.046-0.044c-0.002-0.025,0.03-0.065,0.065-0.091c0.04-0.025,0.069-0.085,0.069-0.136l0.016-0.014
	c0.041,0.032,0.074,0.038,0.074,0.03c0-0.009,0.082-0.077,0.183-0.152c0.01-0.036-0.025-0.107-0.002-0.134
	c0.05-0.001,0.11-0.033,0.137-0.071c0.025-0.036-0.01-0.059-0.078-0.048l0.076-0.063l0.041-0.039
	c0.053-0.004,0.096-0.028,0.096-0.037s0.02-0.015,0.044-0.016c0.024,0,0.044-0.021,0.044-0.03c0-0.008,0.023-0.016,0.046-0.016
	c0.026,0,0.047-0.021,0.047-0.029c0-0.009-0.005-0.054-0.01-0.101l0.009-0.005l0.025-0.018c0.085-0.015,0.15-0.086,0.146-0.156
	l0.009-0.007c0.051,0,0.108-0.041,0.128-0.088l0.008-0.002c0.052-0.001,0.093-0.023,0.093-0.031c0-0.008,0.039-0.032,0.087-0.051
	l0.003-0.009c0.01-0.031-0.025-0.116,0-0.135c0.016-0.018,0.149-0.025,0.181-0.046c0.041-0.03,0.021-0.117,0.046-0.136
	c0.048,0,0.11-0.042,0.133-0.09l0.034-0.022c0.057-0.013,0.103-0.046,0.103-0.054c0-0.01,0.078-0.013,0.115,0.001
	c0.038,0.014,0.069,0.005,0.069-0.002c0-0.009,0.036-0.042,0.071-0.065c0.036-0.024,0.064-0.083,0.062-0.133
	c0.083-0.036,0.023,0.037,0.048,0.045c0.051-0.001,0.03,0.045,0.069,0.045c0.037-0.001,0.124-0.05,0.137-0.066
	c0.012-0.014,0.021-0.047,0.021-0.056c0-0.008,0.044-0.003,0.096,0.011l0.042-0.028c0.05-0.075,0.112-0.135,0.121-0.135
	c0.009,0,0.014-0.021,0.014-0.044c0-0.025,0.021-0.046,0.03-0.046s-0.036,0.05,0,0.047C21.98,7.67,22.027,7.636,22.053,7.6
	c0.025-0.037,0.065-0.066,0.09-0.066c0.027-0.001,0.046-0.022,0.046-0.046c-0.002-0.025,0.02-0.045,0.043-0.046
	c0.026,0,0.048-0.021,0.048-0.029c0-0.009-0.048,0.024-0.048-0.007c0-0.029,0.023-0.053,0.032-0.053
	c0.007,0,0.036-0.021,0.061-0.046c0.024-0.024,0.044-0.066,0.044-0.075c0-0.008,0.039-0.007,0.089,0.002l0.048-0.018l0.009-0.005
	c0.021-0.048,0.087-0.08,0.15-0.073l0.023-0.014l0.03-0.021c0.007-0.063,0.034-0.114,0.059-0.114c0.027,0,0.046-0.041,0.046-0.09
	l0.071-0.038c0.161-0.006,0.294-0.032,0.294-0.041c0-0.008,0.037-0.032,0.085-0.052l0.005-0.008l-0.002-0.09
	c0.03-0.026,0.146-0.019,0.183-0.047c0-0.049,0.03-0.099,0.067-0.111c0.037-0.014,0.041-0.059,0.005-0.104l0.018-0.009
	c0.114-0.074,0.057,0.107,0.137,0.088l0.044-0.134c0.048-0.022,0.133,0.015,0.185-0.002l0.007-0.005
	c0.02-0.047,0.057-0.085,0.083-0.085c0.023,0,0.044-0.041,0.044-0.09c0.083-0.028,0.092,0.043,0.092,0.043
	c0.097,0.023,0.148-0.054,0.181-0.046l0.091,0.018C24.39,6.197,24.37,6.188,24.37,6.18c0-0.009,0.081-0.064,0.101-0.079
	c0.02-0.015,0.036-0.049,0.036-0.058c0-0.007,0.032,0.011,0.069,0.042l0.021-0.014c0.017-0.012,0.078-0.176,0.091-0.18
	c0.025-0.011,0.112,0.011,0.137-0.003l0.091-0.135l0.065-0.03c0.09,0.016,0.163,0.007,0.163-0.001s0.02-0.016,0.045-0.016
	c0.026,0,0.046-0.042,0.046-0.091l0.094-0.038c0.1-0.005,0.18-0.049,0.178-0.099c0.133-0.042-0.021,0.022,0.048,0.044l0.037,0.012
	c0.13-0.033,0.236-0.081,0.236-0.089c0-0.008,0.057-0.023,0.087-0.021c0.028,0.004,0.05-0.018,0.05-0.025
	c0-0.009,0.087-0.064,0.103-0.08c0.02-0.014,0.033-0.048,0.032-0.057c0-0.009,0.021-0.016,0.046-0.016
	c0.024,0,0.046-0.021,0.046-0.029v0.019l0.046,0.01c0.132,0.025-0.026-0.021,0.047-0.046l0.113-0.041
	c0.062-0.003,0.113-0.025,0.113-0.036c0-0.007,0.006,0.019,0.013,0.059l0.08-0.029c-0.002-0.049,0.05-0.095,0.079-0.094
	c0.031,0.001,0.056-0.019,0.056-0.026c0-0.009,0.072-0.01,0.065,0.02c-0.011,0.029,0.005,0.038,0.015,0.027
	c0.005-0.009,0.033-0.019,0.058-0.019c0.025,0,0.045-0.021,0.045-0.031c0-0.007,0.103-0.012,0.1,0.004
	c-0.004,0.014-0.007,0.005-0.007-0.004c0-0.009,0.019-0.016,0.044-0.016c0.024,0,0.046-0.022,0.046-0.029
	c0-0.01,0.08-0.028,0.115-0.024c0.037,0.003,0.067-0.016,0.067-0.024c0-0.008,0.093-0.048,0.108-0.053s0.002-0.046-0.03-0.093
	l0.011-0.004c0.052-0.001,0.146,0.004,0.209,0.009l0.021-0.012c0.025-0.049,0.067-0.089,0.075-0.089c0.009,0,0.016,0.021,0.016,0.03
	c0,0.008,0.08,0.007,0.115,0.008c0.037,0.003,0.067-0.016,0.067-0.025c0-0.008,0.021-0.015,0.03-0.015s0.015,0.02,0.016,0.044
	c0,0.025,0.023,0.046,0.03,0.044c0.009,0,0.016,0.022,0.016,0.03c0,0.009,0.064,0.027,0.091,0.022
	c0.025-0.005,0.047,0.014,0.048,0.021c0,0.009,0.084-0.028,0.188-0.081l0.039,0.003c0,0.05,0.115,0.095,0.156,0.093
	c0.041-0.002,0.074,0.018,0.074,0.025s0.084-0.013,0.102-0.036c0.018-0.021,0.033-0.062,0.033-0.069
	c0-0.009,0.021-0.018,0.046-0.018c0.025,0,0.047-0.021,0.047-0.029c-0.002-0.007,0.059-0.045,0.07-0.052
	c0.011-0.005,0.021-0.03,0.021-0.038c0-0.009,0.04,0.005,0.092,0.028l0.052,0.011c0.07-0.007,0.131,0.009,0.131,0.018
	c0,0.007,0.041-0.007,0.091-0.031l0.113-0.021c0.039,0.036,0.071,0.043,0.069,0.034c0-0.009,0.139-0.034,0.306-0.056l0.105,0.036
	l0.01,0.003c-0.03,0.048-0.03,0.087-0.021,0.087c0.007,0,0.076,0.08,0.154,0.177l0.129,0.035c0.154-0.045,0.292-0.141,0.306-0.213
	l0.02-0.006l0.037-0.012c0.056,0.006,0.1,0.033,0.1,0.041c0.002,0.008,0.165,0.018,0.188,0c0.023-0.017,0.043-0.011,0.043-0.002
	s0.02,0.015,0.044,0.015c0.027,0,0.047,0.022,0.049,0.029c0,0.009,0.079,0.023,0.116,0.019c0.036-0.003,0.065,0.017,0.065,0.024
	c0,0.008,0.104,0.008,0.099-0.005c-0.004-0.015-0.006-0.003-0.006,0.005c0,0.007,0.093,0.037,0.124,0.043
	c0.034,0.008,0.059,0.035,0.059,0.043c0.002,0.008,0.08,0.021,0.18,0.029l0.05-0.018l0.081-0.029
	c-0.02-0.009-0.035,0.005-0.035,0.016c0,0.006,0.023,0.013,0.031,0.013s0.031,0.038,0.053,0.084l0.008,0.005
	c0.052-0.001,0.093,0.021,0.093,0.029s0.201,0.055,0.291,0.055c0.094,0,0.167,0.022,0.169,0.03c0,0.008,0.039,0.032,0.088,0.057
	l0.002,0.002c0,0.048,0.023,0.088,0.048,0.088c0.025,0,0.044,0.022,0.046,0.03c0,0.008,0.121,0.037,0.175,0.029
	c0.055-0.009,0.099,0.006,0.099,0.014c0,0.007,0.023,0.015,0.048,0.013c0.025,0,0.045,0.061,0.043,0.134l0.004,0
	c0.059,0.031,0.166-0.027,0.229-0.002c0.011,0.003,0.048,0.134,0.048,0.134c0.045,0.028,0.087-0.024,0.137-0.002
	c0,0.05,0.023,0.091,0.031,0.091s0.036,0.039,0.045,0.057c0.009,0.017,0.039,0.031,0.048,0.031c0.008-0.001,0.035,0.03,0.062,0.066
	c0.024,0.038,0.067,0.067,0.092,0.067c0.023,0,0.032-0.044,0.015-0.098l0.076,0.052c0,0.049,0.021,0.088,0.046,0.088
	c0.025,0,0.036,0.038,0.021,0.082l0.026,0.052c0.052,0,0.082,0.035,0.071,0.081L33.8,6.289c0.049,0.023,0.092,0.098,0.092,0.126
	s0.021,0.052,0.044,0.05c0.026,0,0.048,0.02,0.05,0.045c0,0.024,0.02,0.044,0.029,0.044c0.008,0,0.042,0.087,0.049,0.119
	c0.007,0.033,0.036,0.059,0.06,0.059c0.024,0,0.046-0.021,0.046-0.03L34.15,6.816l0.05,0.111l-0.011,0.152l0.095,0.197l-0.027,0.042
	l0.058,0.114l0.005,0.084l0.02,0.032l-0.002,0.145L34.38,7.76z"/>
<path fill="#231F20" d="M31.101,6.496c0.076-0.011,0.093,0.044,0.093,0.044c0.153,0.008-0.054-0.012,0.046-0.046l0.078-0.029
	c0.007,0.041,0.042,0.063,0.077,0.052c0.038-0.011,0.139,0.014,0.166,0.062l0.107,0.022c0.039-0.037,0.073-0.062,0.073-0.053
	c0.002,0.009,0.021,0.029,0.048,0.029c0.025,0,0.044,0.021,0.046,0.044c0,0.024,0.021,0.045,0.046,0.044
	c0.025,0,0.045,0.007,0.045,0.015c0,0.008,0.022,0.042,0.049,0.056C32,6.752,32.065,6.819,32.065,6.844
	c0.002,0.024-0.035,0.033-0.081,0.019l0.037,0.072c0.05-0.001,0.091,0.019,0.093,0.043c0,0.026,0.021,0.044,0.046,0.044
	c0.024,0,0.029,0.015,0.012,0.032c-0.018,0.017-0.005,0.057,0.004,0.057s0.03,0.007,0.03,0.016s0.013,0.05,0.03,0.076
	c0.016,0.026,0.109,0.094,0.109,0.102c0,0.008,0.008,0.029,0.017,0.029c0.007,0,0.02,0.045,0.005,0.101l0.025,0.033
	c0.076,0.024,0.138,0.064,0.138,0.088s0.009,0.044,0.017,0.044c0.011,0,0.018,0.083,0,0.186L32.58,7.87
	c0.05-0.001,0.093,0.018,0.093,0.042c0,0.026,0.007,0.046,0.016,0.046s0.028,0.022,0.025,0.047
	c-0.002,0.027,0.014,0.087,0.021,0.087c0.009,0,0.032,0.02,0.032,0.043c0,0.025,0.007,0.045,0.016,0.044
	c0.009,0,0.03,0.02,0.03,0.046c0,0.024-0.005,0.045-0.014,0.045h-0.047c-0.009,0-0.051-0.003-0.077-0.007
	c-0.027-0.002,0.09,0.158,0.029,0.232l0.112-0.002c0,0.075-0.02,0.135-0.045,0.137c-0.024,0-0.067,0.016-0.092,0.036
	s0.092,0.028,0.094,0.055c0,0.026-0.012,0.072,0.027,0.052l-0.027,0.079c-0.05,0.051-0.091,0.098-0.091,0.106
	c0,0.009-0.019,0.019-0.046,0.004l0.095,0.07L32.822,9.1c-0.051,0.062-0.082,0.112-0.073,0.112s0.028,0.024,0.026,0.054
	c0,0.029,0.011,0.08,0.02,0.08c0.009-0.002,0.027,0.04,0.023,0.09c-0.006,0.051,0.018,0.178,0.026,0.178
	c0.007,0,0.033,0.017,0.039,0.038c0.006,0.02,0.032,0.141,0.023,0.141c-0.008,0-0.03,0.021-0.03,0.045
	c0.001,0.024,0.007,0.045,0.016,0.045c0.009,0,0.024,0.036,0.018,0.081c-0.005,0.045-0.037,0.188-0.046,0.188
	c-0.008,0-0.023,0.08-0.015,0.176c0.007,0.097,0.007,0.301-0.026,0.282l0.017,0.081c0,0,0.103,0.025,0.094,0.088
	c-0.052,0-0.093,0.025-0.091,0.053c0,0.03-0.007,0.082-0.016,0.082c-0.007,0-0.015,0.098,0.007,0.218l-0.033,0.096
	c-0.052,0-0.093,0.021-0.091,0.046c0,0.025-0.02,0.056-0.045,0.069c-0.026,0.012-0.046,0.042-0.046,0.067
	c0,0.025-0.002,0.031-0.003,0.015c-0.004-0.017-0.026,0.067-0.011,0.057c0.016-0.01,0.011,0.062,0,0.062
	c-0.008,0-0.028,0.03-0.027,0.064c0.004,0.036-0.007,0.117-0.016,0.117s-0.028,0.032-0.024,0.072
	c0.003,0.039-0.011,0.152-0.018,0.152c-0.011,0-0.021,0.031-0.008,0.067c0.013,0.037,0.023,0.087,0.023,0.112
	s-0.03,0.059-0.069,0.076c-0.037,0.017-0.015,0.059-0.005,0.059s0.029,0.041,0.031,0.091c0,0.049,0.017,0.169,0.032,0.159
	c0.016-0.01,0.009,0.063,0,0.063s-0.041,0.047-0.057,0.105l-0.018,0.03l-0.091,0.044c-0.02,0.05,0.02,0.13,0.002,0.18l-0.091,0.046
	l-0.024,0.071c0.014,0.109-0.013,0.216-0.062,0.236v0.008l-0.028,0.111c0.041,0.012,0.067,0.023,0.059,0.023s-0.03,0.021-0.03,0.046
	c0.002,0.023-0.041,0.044-0.09,0.045c-0.019,0.046,0.026,0.136,0.001,0.18l-0.011,0.014c-0.044-0.033-0.081-0.051-0.081-0.043
	c0,0.01-0.006,0.029-0.015,0.029s-0.026,0.03-0.021,0.065c0.005,0.036-0.015,0.115-0.023,0.115c-0.007,0.001-0.03,0.006-0.03,0.017
	c0,0.007-0.021,0.05-0.048,0.075c-0.025,0.025-0.134,0.097-0.134,0.106c0,0.008-0.083,0.033-0.186,0.04l-0.041,0.037
	c-0.026,0.023,0.016,0.146,0.004,0.179c-0.052,0.002-0.114,0.042-0.139,0.091v0.001c-0.05,0-0.091,0.042-0.091,0.09
	c-0.037,0.017-0.108-0.022-0.137,0.002c-0.009,0.005-0.044,0.134-0.044,0.134c-0.043,0.038-0.085,0.01-0.137,0.047
	c0,0.048-0.02,0.089-0.046,0.09c-0.025,0-0.045,0.02-0.045,0.045s-0.012,0.049-0.026,0.053c-0.016,0.005-0.109,0.045-0.109,0.054
	c0,0.008-0.02,0.029-0.045,0.03c-0.025,0-0.046,0.007-0.046,0.016c0,0.008-0.037-0.01-0.084-0.057l-0.009-0.003
	c-0.05,0.001-0.092-0.006-0.092-0.013c0-0.008-0.011-0.02-0.026-0.006c-0.013,0.012-0.11,0.015-0.11,0.006
	c0-0.006-0.03-0.028-0.067-0.026c-0.035,0.001-0.115-0.008-0.115-0.016c-0.002-0.009-0.038-0.029-0.082-0.024
	c-0.044,0.003-0.149-0.044-0.15-0.092c-0.093-0.028-0.094,0.077-0.135,0.045l-0.011-0.007c0.003-0.069-0.011-0.127-0.037-0.127
	c-0.025,0-0.047-0.04-0.047-0.089c-0.053-0.022-0.091,0.091-0.091,0.091l-0.072,0.014c-0.035-0.032-0.072-0.082-0.078-0.109
	c-0.007-0.029-0.076-0.172-0.128-0.17c-0.024-0.05,0.032-0.092-0.002-0.136c-0.037-0.05-0.087-0.007-0.136-0.043
	c-0.05-0.035-0.013-0.083-0.05-0.134c-0.048,0.001-0.093-0.042-0.096-0.093c-0.004-0.052-0.048-0.175-0.058-0.175
	c-0.009,0-0.021-0.019-0.009-0.045c0.013-0.025,0.023-0.065,0.021-0.089c0-0.025-0.018-0.096-0.039-0.157s0.036-0.118,0.036-0.124
	c0-0.007-0.054-0.034-0.064-0.036s0.064-0.066,0.061-0.095c0-0.03,0.011-0.082,0.018-0.082c0.008,0,0.026-0.033,0.021-0.072
	c-0.006-0.041-0.014-0.152-0.039-0.152c-0.026,0.001-0.046-0.04-0.048-0.09c0-0.051,0.024-0.158,0.053-0.136l-0.009-0.088
	l-0.092-0.042c-0.05-0.122,0.061-0.119,0.042-0.227l-0.09-0.043l-0.028-0.068c0.014-0.085,0.018-0.157,0.009-0.157
	c-0.007,0-0.03-0.019-0.03-0.043c0-0.025-0.008-0.045-0.017-0.045c-0.007,0-0.012-0.03,0.008-0.067l0.007-0.021l0.006-0.029
	c-0.004-0.058,0-0.107,0.008-0.107c0.01,0,0.027-0.022,0.023-0.047s0.013-0.088,0.021-0.088s0.026-0.02,0.023-0.046
	c-0.004-0.025-0.011-0.08-0.03-0.068c-0.02,0.01-0.002-0.063,0.005-0.063c0.009,0,0.041-0.036,0.056-0.081
	c0.014-0.042,0.068-0.19,0.079-0.19c0.009,0,0.018-0.059,0.004-0.129c-0.015-0.072-0.016-0.14-0.007-0.14s0.028-0.03,0.026-0.064
	c-0.004-0.037,0.042-0.116,0.092-0.117l0.036-0.094c0.005-0.097,0.016-0.176,0.024-0.176c0.007,0,0.03-0.007,0.03-0.015
	s-0.011-0.067-0.02-0.113c-0.011-0.045-0.023-0.187-0.016-0.187c0.011,0,0.026-0.021,0.022-0.048
	c-0.005-0.029-0.048-0.175-0.057-0.175c-0.007,0-0.026-0.029-0.024-0.063c0.003-0.037-0.034-0.161-0.065-0.215l0.012-0.034
	c0.05,0,0.078-0.044,0.061-0.099l0.074-0.036c0.066-0.034-0.106-0.054-0.046-0.091c0.009-0.005,0.089-0.045,0.091-0.045l0.016-0.078
	c-0.033,0.019-0.072,0.033-0.085,0.033s0.067-0.064,0.067-0.089c0-0.024,0.02-0.046,0.046-0.046c0.025,0,0.046-0.024,0.045-0.054
	c-0.002-0.029,0.005-0.082,0.016-0.082c0.007,0,0.016-0.037-0.004-0.085c-0.018-0.047,0.077-0.145,0.077-0.153
	c0-0.009-0.034-0.037-0.073-0.045l0.025-0.075l0.136-0.046l0.02-0.034c-0.013-0.056-0.013-0.101-0.005-0.101
	c0.009,0,0.03-0.021,0.03-0.045c0-0.024,0.039-0.065,0.087-0.089l0.003-0.002C29.624,8.369,29.6,8.285,29.61,8.26V8.256
	c0.049-0.024,0.09-0.082,0.09-0.131l0.02-0.026c0.041,0.038,0.073,0.048,0.073,0.024c-0.002-0.025,0.018-0.047,0.041-0.051
	c0.022-0.001,0.063-0.074,0.026-0.115l0.021-0.015l0.136-0.045l0.021-0.047c-0.014-0.073-0.016-0.132-0.007-0.132
	c0.007,0,0.028-0.021,0.028-0.047c0-0.025,0.007-0.044,0.017-0.044c0.008,0,0.027-0.041,0.027-0.09
	c0.006-0.009,0.134-0.085,0.139-0.091l0.025-0.052C30.277,7.3,30.293,7.222,30.3,7.222c0.01,0,0.032-0.006,0.03-0.017
	c0-0.007,0.03-0.028,0.066-0.024c0.037,0,0.072-0.012,0.07-0.021c0-0.009-0.007-0.049-0.014-0.071
	c-0.009-0.021-0.027-0.137-0.018-0.137c0.009,0,0.04-0.021,0.051-0.045c0.013-0.025,0.045-0.046,0.069-0.047
	c0.024,0,0.044-0.006,0.044-0.014c0-0.009,0.041-0.033,0.089-0.034l0.05-0.042c-0.001-0.049,0.025-0.145,0.057-0.213l0.032-0.012
	c0.074-0.033,0.149,0.023,0.229-0.002C31.249,6.472,30.851,6.528,31.101,6.496"/>
<path fill="#231F20" d="M28.186,7.646c0.126-0.022-0.013,0.069,0.046,0.09l0.065,0.021c0.039-0.037,0.071-0.061,0.071-0.052
	c0,0.009,0.021,0.029,0.046,0.029c0.026,0,0.067,0.031,0.093,0.067c0.026,0.037,0.053,0.066,0.063,0.066
	c0.007,0,0.028,0.021,0.028,0.043c0.001,0.026,0.042,0.045,0.092,0.045l0.043,0.063c0.004,0.088,0.013,0.16,0.023,0.16
	c0.007,0,0.02,0.017,0.009,0.038c-0.011,0.021-0.015,0.062-0.002,0.075c0.013,0.012,0.018,0.022,0.009,0.022
	s-0.016,0.018,0.002,0.04c0.018,0.021,0.007,0.049-0.002,0.049s-0.035,0.08-0.043,0.176c-0.005,0.096,0.025,0.318,0.034,0.318
	s0.03,0.024,0.031,0.052c0.002,0.03-0.007,0.082-0.016,0.082c-0.009,0.001-0.033,0.021-0.039,0.047
	c-0.005,0.025-0.042,0.133-0.05,0.133c-0.009,0-0.031,0.022-0.031,0.045c0,0.025,0.011,0.049,0.021,0.054
	c0.013,0.006,0.078,0.093,0.086,0.166l-0.011,0.049c0,0-0.069-0.045-0.045,0.09c0.025,0.048,0.039,0.089,0.032,0.089
	c-0.009,0-0.034,0.017-0.037,0.036c-0.004,0.02-0.046,0.099-0.054,0.099c-0.007,0-0.031,0.021-0.03,0.045
	c0,0.025-0.007,0.045-0.014,0.045c-0.009,0-0.034,0.021-0.035,0.049c-0.002,0.026-0.048,0.132-0.056,0.132
	c-0.007,0-0.031,0.097-0.037,0.215l-0.035,0.099c-0.007,0.016-0.075,0.028-0.091,0.045l-0.044,0.038
	c0.049,0.028,0.092,0.072,0.092,0.096s-0.043,0.066-0.09,0.09l-0.01,0.089c0.03-0.023,0.057-0.031,0.062-0.015
	c0.004,0.017-0.053,0.069-0.053,0.077s0.026,0.087,0.058,0.158l-0.011,0.095c-0.047,0.024-0.088,0.053-0.088,0.061v0.12
	c0.001,0.048,0.018,0.08,0.039,0.07c0.02-0.009,0.053-0.02,0.053-0.012c0,0.01,0.002,0.054,0.004,0.083
	c0,0.029-0.008,0.082-0.018,0.082c-0.008,0-0.025,0.042-0.021,0.092c0.005,0.049-0.013,0.177-0.02,0.177
	c-0.009,0-0.025,0.058-0.018,0.128l-0.011,0.051l-0.016,0.059c-0.017,0.017-0.023,0.032-0.015,0.032
	c0.009-0.001,0.03,0.019,0.03,0.044s0.009,0.045,0.018,0.045s0.022,0.046,0.018,0.103c-0.007,0.058,0.023,0.21,0.03,0.21
	c0.009,0,0.03,0.019,0.03,0.043c0.002,0.026,0.009,0.045,0.016,0.045c0.011,0,0.032,0.024,0.032,0.053
	c0,0.03-0.007,0.081-0.015,0.082c-0.007,0-0.028,0.063-0.026,0.139c0.002,0.075-0.007,0.266-0.016,0.266
	c-0.008,0-0.028,0.007-0.028,0.016c0,0.009,0.009,0.04,0.02,0.054c0.011,0.015,0.059,0.146,0.041,0.136
	c-0.017-0.009-0.02,0.062-0.029,0.064c-0.007,0-0.031,0.004-0.031,0.011c0,0.005,0.063,0.056,0.082,0.083l-0.079,0.04
	c-0.053,0.027,0.099,0.062,0.046,0.089c-0.099,0.051-0.008,0.062-0.042,0.136c-0.052,0.049-0.085,0.091-0.076,0.09
	c0.011,0,0.03,0.04,0.031,0.09c0.04,0.029,0.112,0.001,0.138,0.043l0.033,0.06c-0.016,0.188-0.035,0.343-0.045,0.343
	c-0.008,0-0.037,0.023-0.046,0.052c-0.007,0.029-0.074,0.091-0.074,0.1c0,0.007-0.006,0.028-0.014,0.028
	c-0.01,0-0.025,0.05-0.021,0.108c0.008,0.059-0.014,0.207-0.022,0.207c-0.007,0-0.024,0.046-0.017,0.101l-0.012,0.035l-0.093,0.046
	c-0.014,0.042,0.028,0.139,0.004,0.179l-0.035,0.048c-0.082-0.001-0.147,0.019-0.147,0.043s-0.028,0.047-0.065,0.05
	c-0.036,0.003-0.117-0.01-0.117-0.018s-0.028-0.034-0.062-0.038c-0.033-0.003-0.168-0.042-0.168-0.05
	c0-0.009-0.008-0.039-0.018-0.046c-0.01-0.01-0.138-0.161-0.214-0.159v-0.002c-0.028-0.061,0.036-0.172-0.001-0.224
	c0,0-0.086-0.047-0.093-0.044c-0.083,0.018,0.101,0.073-0.044,0.045c-0.027-0.024-0.045-0.074-0.041-0.108
	c0.002-0.036-0.1-0.119-0.1-0.127c0-0.009,0.021-0.074,0.048-0.127c0.024-0.053,0.034-0.128,0.024-0.128
	c-0.007,0-0.029-0.006-0.029-0.014c0-0.01-0.015-0.048-0.032-0.069c-0.016-0.02-0.067-0.096-0.076-0.096s0.007-0.058,0.053-0.131
	l-0.041-0.138l-0.007-0.015c-0.046,0.033-0.085,0.055-0.085,0.047c0-0.009-0.007-0.031-0.015-0.031
	c-0.009,0-0.031-0.042-0.031-0.096c-0.002-0.052-0.045-0.172-0.094-0.171l-0.012-0.004c-0.02-0.047-0.042-0.085-0.051-0.085
	s-0.03-0.021-0.026-0.048c0.003-0.028-0.013-0.085-0.02-0.085c-0.01,0-0.03-0.023-0.029-0.054c0-0.031-0.01-0.08-0.019-0.08
	s-0.029-0.021-0.023-0.048c0.004-0.027-0.016-0.086-0.025-0.086c-0.007,0-0.029-0.019-0.029-0.044
	c-0.002-0.024-0.008-0.045-0.017-0.043c-0.009,0-0.03-0.021-0.031-0.045c0-0.024-0.041-0.065-0.093-0.089
	c-0.005-0.019,0.087-0.143,0.042-0.223c-0.012-0.025-0.107-0.029-0.136-0.044c-0.052-0.074-0.1-0.134-0.108-0.134
	s-0.023-0.059-0.015-0.134l-0.018-0.045c-0.05,0.001-0.092-0.038-0.092-0.089l-0.005-0.008c-0.049-0.019-0.087-0.042-0.087-0.049
	c0-0.009-0.021-0.031-0.047-0.031c-0.026,0-0.046-0.019-0.048-0.044c0-0.025-0.011-0.047-0.028-0.05
	c-0.015-0.003-0.067-0.03-0.073-0.02c-0.005,0.009-0.016,0.079,0.009,0.086l0.048,0.029l0.015,0.008
	c-0.032,0.046-0.048,0.092-0.035,0.105c0.012,0.012,0.016,0.021,0.009,0.021c-0.009,0-0.032,0.006-0.028,0.013
	c0.002,0.007,0.044,0.052,0.044,0.077c0,0.024-0.005,0.043-0.011,0.043c-0.005-0.001-0.041,0.092-0.05,0.092s-0.03,0.007-0.03,0.015
	c0,0.009-0.003,0.077-0.007,0.138c-0.003,0.059,0.102,0.167,0.102,0.175c0,0.008-0.013,0.04-0.032,0.056
	c-0.02,0.016-0.005,0.108,0.004,0.108s0.035,0.012,0.039,0.027c0.005,0.014,0.046,0.106,0.055,0.106s0.03,0.03,0.03,0.064
	c0,0.036-0.005,0.116-0.013,0.116c-0.009,0-0.021,0.033-0.007,0.075c0.013,0.04,0.016,0.104,0.009,0.104
	c-0.009,0-0.032,0.008-0.032,0.017c0,0.008,0.017,0.013,0.036-0.005c0.021-0.02,0.005,0.123-0.004,0.123
	c-0.007,0.001-0.03,0.02-0.03,0.045c0.002,0.025-0.005,0.045-0.014,0.045c-0.01,0-0.03,0.024-0.03,0.054
	c0,0.028,0.009,0.082,0.018,0.082c0.007,0,0.028,0.028,0.028,0.062c-0.002,0.035-0.026,0.101-0.064,0.087l0.021,0.075
	c0.052,0,0.091,0.047,0.087,0.105l0.006,0.028c0.026,0.049,0.041,0.089,0.031,0.089c-0.006,0-0.027,0.029-0.027,0.064
	c0,0.035-0.031,0.081-0.069,0.094c-0.036,0.012-0.076,0.051-0.087,0.085c-0.011,0.037-0.006,0.072,0.021,0.072
	c0.025,0,0.045,0.02,0.045,0.044c0.002,0.024-0.009,0.085-0.02,0.134c-0.013,0.05-0.017,0.09-0.008,0.09
	c0.01,0,0.031,0.02,0.031,0.045c0,0.024,0.042,0.043,0.092,0.043l0.037,0.091c-0.018,0.147-0.026,0.268-0.016,0.267
	c0.007,0,0.028,0.021,0.029,0.046c0,0.024-0.018,0.074-0.038,0.111c-0.023,0.038,0.031,0.184,0.021,0.328l-0.022,0.055
	c-0.052,0-0.087,0.017-0.082,0.04c0.006,0.022-0.1,0.103-0.1,0.111s-0.01,0.016-0.024-0.001s-0.111-0.006-0.111,0.002
	c0,0.009-0.043,0.03-0.093,0.03c-0.076,0.026,0.093,0.07-0.045,0.045l-0.048-0.132l-0.042-0.018
	c-0.078,0.011-0.133,0.018-0.123,0.015c0.01-0.001-0.06-0.088-0.053-0.147l-0.013-0.029c-0.007-0.011-0.085-0.031-0.092-0.044
	c-0.002-0.049-0.002-0.08-0.002-0.068c0,0.011-0.039-0.065-0.03-0.065s0.035-0.003,0.043-0.007c0.005-0.002-0.057-0.067-0.057-0.104
	c0.001-0.034,0.005-0.123,0.02-0.136c0.01-0.012,0.014-0.023,0.007-0.023c-0.009,0-0.035-0.027-0.041-0.062
	c-0.007-0.034-0.03-0.161-0.021-0.161c0.008,0,0.027-0.007,0.025-0.014c-0.004-0.007-0.039-0.056-0.034-0.086
	c0.004-0.03,0.041-0.169,0.05-0.169s0-0.057-0.039-0.125l0.023-0.009c0.026-0.018,0.072,0.032,0.044-0.046
	c-0.05-0.024-0.103-0.074-0.115-0.111c-0.013-0.036,0.007-0.077,0.046-0.09c0.036-0.012,0.063-0.078,0.061-0.145
	c-0.004-0.066-0.02-0.248-0.046-0.259c-0.026-0.012,0.048-0.031,0.048-0.038c0-0.009-0.016-0.039-0.034-0.052
	c-0.02-0.013,0.021-0.037,0.008-0.052c-0.017-0.018-0.067-0.088-0.067-0.123c-0.002-0.037,0.012-0.108,0.028-0.098
	c0.016,0.01-0.006-0.054-0.034-0.042c-0.026,0.012-0.035-0.064-0.026-0.066c0.009,0,0.028-0.028,0.024-0.063
	c-0.002-0.037,0.023-0.104,0.047-0.089c0.024,0.014,0.048,0.011,0.048,0.002c0-0.009-0.015-0.037-0.03-0.042
	c-0.018-0.005-0.059-0.064-0.054-0.103c0.007-0.039,0.041-0.199,0.05-0.199s-0.007-0.015-0.053-0.029l0.037-0.105l0.031-0.097
	c0.008,0.028,0.006,0.052-0.001,0.052c-0.009,0-0.032-0.029-0.032-0.066c0-0.036-0.043-0.132-0.094-0.157l-0.025-0.1
	c0.011-0.119,0.017-0.213,0.007-0.213c-0.007,0-0.029-0.023-0.028-0.054c0-0.031-0.011-0.081-0.02-0.08
	c-0.007,0-0.029-0.055-0.031-0.122c0-0.069-0.01-0.236-0.018-0.236s-0.032-0.003-0.036-0.009c-0.002-0.006,0.048-0.061,0.046-0.091
	c-0.002-0.031,0.011-0.081,0.019-0.081c0.011,0,0.026-0.012,0.02-0.028l-0.036-0.016l-0.097-0.047
	c0.079,0.001,0.145-0.023,0.145-0.052c0.002-0.03-0.011-0.081-0.018-0.081c-0.009,0-0.032-0.024-0.035-0.054
	c0-0.029,0.009-0.08,0.018-0.08s0.03-0.025,0.026-0.055c-0.002-0.031,0.011-0.08,0.018-0.08c0.009,0,0.023-0.033,0.013-0.073
	c-0.007-0.04-0.03-0.057-0.03-0.106c0.004-0.003,0.093-0.045,0.093-0.045l-0.011-0.087c-0.044,0.024-0.084,0.011-0.084-0.029
	s-0.009-0.153-0.016-0.153c-0.009,0.001-0.031-0.035-0.031-0.078c0-0.044,0.038-0.145,0.088-0.147l0.007-0.08
	c-0.028,0.019-0.051,0.014-0.048-0.013c0.002-0.029-0.012-0.085-0.021-0.084c-0.008,0-0.03-0.03-0.03-0.064
	c0-0.037,0.005-0.115,0.014-0.115s0.028-0.025,0.027-0.055c-0.002-0.03,0.009-0.081,0.017-0.082c0.008,0,0.031-0.004,0.031-0.011
	c0-0.006-0.047-0.053-0.047-0.078c-0.001-0.025-0.009-0.046-0.018-0.046c-0.007,0-0.028-0.005-0.022-0.014
	c0.003-0.007,0.039-0.036,0.039-0.045c0-0.007-0.032-0.056-0.068-0.088l0.02-0.076c0,0,0.065-0.008,0.045-0.089l-0.002,0
	c-0.05-0.025-0.091-0.051-0.091-0.058c0-0.009,0.041-0.052,0.091-0.077c0.007-0.012,0.044-0.18,0.044-0.18l0.017-0.014
	c0.065,0.008,0.12,0.007,0.12-0.002c0-0.008,0.021-0.031,0.047-0.031c0.024,0,0.046-0.007,0.046-0.015
	c-0.002-0.008,0.016-0.034,0.035-0.037c0.02-0.005,0.1-0.045,0.1-0.054c0-0.008,0.021-0.03,0.046-0.03
	c0.025-0.001,0.025,0.073-0.033,0.052c-0.058-0.021,0.165,0.082,0.159,0.138l0.013,0.032c0.051,0.023,0.094,0.084,0.094,0.134
	c0.039,0.027,0.201,0.019,0.229,0.042c0,0,0.035,0.209,0.048,0.224l0.016,0.019c0.041-0.036,0.078-0.044,0.078-0.02
	s0.037,0.059,0.083,0.077l0.008,0.013l0.05,0.09c0,0.123,0.04,0.222,0.09,0.222c0.024,0.105-0.087,0.077-0.043,0.179
	c0.051,0,0.091,0.019,0.091,0.043c0,0.024,0.009,0.045,0.018,0.045c0.01,0,0.041,0.049,0.054,0.108
	c0.014,0.059,0.018,0.115,0.011,0.115c-0.009,0.001-0.033,0.03-0.037,0.068c-0.006,0.037,0.014,0.111,0.024,0.111
	c0.007,0,0.045,0.076,0.065,0.165l0.011,0.014h0.091c0.039,0.012,0.026,0.114,0.048,0.133c0.052,0,0.133,0.06,0.183,0.133h0.002
	l0.021,0.018c0.04,0.015,0.065,0.093,0.06,0.174c-0.005,0.081,0.011,0.36,0.06,0.379l0.003,0.01
	c0.039,0.098-0.046,0.134,0.048,0.178c0.039,0.017-0.067,0.044-0.044,0.089c0.02,0.039,0.104,0.016,0.137,0.043
	c0.002,0.05,0.04,0.106,0.091,0.123l0.003,0.011c0,0.048,0.007,0.09,0.016,0.09c0.011,0,0.045,0.016,0.062,0.036
	c0.016,0.021,0.062,0.059,0.062,0.068c0,0.008,0.02,0.029,0.045,0.029c0.024,0,0.048,0.019,0.048,0.044
	c0,0.024,0.007,0.044,0.014,0.044c0.01,0,0.025-0.062,0.017-0.14c-0.009-0.077,0.018-0.263,0.026-0.263
	c0.009-0.002,0.028-0.026,0.026-0.056c-0.001-0.03,0.008-0.079,0.019-0.08c0.009,0,0.021-0.042,0.012-0.096l0.015-0.039
	c0-0.004,0.092-0.046,0.092-0.046c0.023-0.124-0.115-0.1-0.047-0.134c0.014-0.007,0.104-0.059,0.046-0.09l-0.093,0.001
	c-0.013-0.086,0.002-0.024,0.047-0.045c0.075-0.041-0.127-0.05-0.047-0.09l0.053-0.028c-0.005-0.059-0.018-0.106-0.024-0.106
	s-0.035-0.04-0.042-0.089c-0.006-0.049,0.016-0.181,0.022-0.181c0.011,0,0.028-0.024,0.026-0.054c0-0.031,0.012-0.08,0.02-0.08
	c0.008-0.001,0.017-0.016-0.002-0.033c-0.016-0.018-0.051-0.087-0.039-0.124c0.013-0.038,0.019-0.059,0.012-0.047
	c-0.004,0.013-0.008-0.08,0.026-0.097c0.033-0.017,0.118-0.081,0.118-0.104c0-0.026,0.01-0.054,0.02-0.066
	c0.012-0.012,0.008-0.024-0.02-0.024c-0.024,0-0.026-0.036-0.003-0.08l0.003-0.009c0.018-0.131-0.048-0.091-0.048-0.091
	l-0.021-0.074c0.012-0.082,0.039-0.149,0.064-0.15c0.026,0,0.046-0.006,0.046-0.015c0-0.007,0.029-0.079,0.029-0.079
	c0.008-0.073,0.008-0.131,0-0.13c-0.008,0-0.034-0.058-0.038-0.128l0.004-0.051c0.052,0,0.087-0.048,0.081-0.104
	c-0.005-0.057,0.015-0.21,0.023-0.21s0.03-0.022,0.03-0.046s0.007-0.044,0.016-0.046c0.008,0,0.024-0.006,0.02-0.018
	c-0.005-0.009-0.029-0.07-0.021-0.07c0.01-0.002,0.046-0.049,0.064-0.106l-0.128-0.073l-0.033-0.021
	c0.042-0.039,0.087-0.097,0.099-0.131c0.013-0.034-0.021-0.035-0.022-0.042c0-0.009,0.028-0.051,0.062-0.074
	c0.032-0.023,0.075-0.055,0.075-0.063c0-0.008,0.019-0.029,0.046-0.029c0.024,0,0.004-0.038-0.045-0.081l-0.003-0.009l-0.037-0.104
	c0.018-0.164,0.04-0.299,0.05-0.299c0.008,0,0.025-0.03,0.021-0.065c-0.003-0.035,0.013-0.115,0.021-0.115s0.037-0.021,0.045-0.045
	c0.009-0.024,0.07-0.091,0.12-0.091C28.116,7.723,28.118,7.659,28.186,7.646"/>
<path fill="#FBB619" d="M31.205,7.661c0.093-0.038,0.115-0.098,0.229-0.048c0,0.049,0.023,0.09,0.032,0.09
	c0.008,0,0.035,0.029,0.062,0.066c0.022,0.036,0.087,0.066,0.137,0.066c0.029,0.087-0.045,0.09-0.045,0.09
	c-0.016,0.063-0.014,0.204,0.004,0.27c0.024,0.048,0.024,0.089,0.016,0.089c-0.007,0-0.003,0.068,0.011,0.15l0.021,0.029
	l0.092,0.043l0.021,0.077c-0.011,0.106-0.039,0.193-0.048,0.193s0.013,0.056,0.018,0.068c0.007,0.012-0.026,0.038-0.078,0.059V8.91
	L31.65,9.019c0.039,0.013,0.02,0.045,0.039,0.086c0.02,0.039,0.015,0.073,0.005,0.073c-0.008,0-0.014,0.022-0.014,0.029
	c0,0.008,0.021,0.015,0.03,0.015s0.002,0.026-0.009,0.048c-0.013,0.023,0.041,0.083,0.117,0.131l0.009,0.035
	c-0.028,0.078,0.161,0.162,0.101,0.171c-0.059,0.01-0.087-0.075-0.078-0.01c0.01,0.064-0.003,0.117-0.012,0.117
	s-0.015,0.128-0.015,0.178c0.002,0.05,0.023,0.091,0.032,0.091c0.011,0,0.046,0.261,0.053,0.344c0.008,0.08-0.007,0.147-0.016,0.147
	s-0.016,0.029-0.016,0.067c0,0.037,0.065,0.065,0.142,0.063l-0.094,0.049l-0.05,0.023c0.002,0.037,0.026,0.066,0.035,0.066
	c0.01,0,0.015,0.019,0.015,0.045c0,0.024,0.028,0.028,0.061,0.006l-0.013,0.082l-0.093,0.046c-0.048,0.073,0.004,0.134-0.088,0.181
	l-0.049,0.021c0.052,0.037,0.075,0.067,0.064,0.067c-0.008,0-0.015,0.023-0.015,0.03c0,0.01-0.018,0.041-0.039,0.071l-0.051,0.08
	l-0.017,0.022c-0.041,0.013-0.072,0.043-0.072,0.068v0.074c0,0.008,0.065-0.015,0.074,0.011c0.011,0.027-0.003,0.048-0.028,0.048
	c-0.024,0-0.046,0.023-0.046,0.032c0,0.008-0.021,0.014-0.03,0.014c-0.007,0.001-0.017,0.042-0.013,0.09
	c0,0.004,0.064,0.011,0.047,0.134c-0.052,0.002-0.064,0.03-0.032,0.064l-0.013,0.071l-0.093,0.045l-0.012,0.033
	c0.007,0.056-0.024,0.118-0.075,0.137l-0.001,0.01l-0.028,0.083c0.016,0.102,0.008,0.187,0.001,0.187
	c-0.011,0-0.016,0.02-0.014,0.043c0,0.025-0.021,0.047-0.03,0.047c-0.011,0-0.005,0.061,0.007,0.134l-0.021,0.045
	c-0.049,0-0.09,0.021-0.09,0.045s-0.041,0.066-0.093,0.091c-0.022,0.046,0.018,0.13,0.004,0.178l-0.093,0.047
	c-0.012,0.019-0.042,0.225-0.042,0.225c-0.061,0.049-0.137-0.014-0.183,0.047l-0.025,0.029c0.017,0.059,0.006,0.106-0.003,0.106
	c-0.01,0-0.036,0.03-0.061,0.068c-0.024,0.037-0.065,0.066-0.091,0.066c-0.024,0.002-0.046,0.025-0.046,0.032
	c0,0.008-0.154,0.04-0.197,0.015c-0.042-0.022-0.07-0.007-0.072,0.028c-0.002,0.036-0.025,0.064-0.034,0.064
	s-0.014-0.021-0.016-0.045c-0.002-0.022-0.062-0.074-0.073-0.08c-0.01-0.003-0.02-0.028-0.02-0.037c0-0.008-0.042-0.015-0.092-0.015
	l-0.017-0.026c0.01-0.059-0.049-0.107-0.129-0.106l0.098-0.047c0.061-0.03,0.061-0.001,0.044-0.09c0,0-0.063-0.002-0.046-0.089
	c0.007-0.049,0.13,0.024,0.089-0.135c-0.05-0.023-0.091-0.064-0.091-0.087c-0.001-0.026-0.063-0.085-0.141-0.135
	c-0.016-0.062,0.089-0.089,0.091-0.089l0.023-0.083c-0.037-0.028-0.069-0.071-0.069-0.08s0.075-0.089,0.062-0.127
	c-0.01-0.038-0.081-0.108-0.157-0.156l-0.007-0.078c0.028,0.017,0.051-0.029,0.051-0.055c0-0.025,0.021-0.047,0.03-0.047
	c0.01,0,0.02-0.081,0.018-0.115c-0.003-0.037-0.026-0.064-0.033-0.064c-0.009,0-0.018-0.021-0.018-0.029
	c0-0.008,0.023-0.015,0.03-0.015c0.009,0,0.026-0.158,0.037-0.213c0.012-0.056,0.021-0.123,0.021-0.13
	c0-0.009,0.021-0.016,0.029-0.016s0.015-0.041,0.015-0.09l-0.062,0.033c-0.019-0.189-0.011-0.347-0.002-0.347
	c0.007,0,0.051-0.087,0.053-0.104c0.004-0.017,0.028-0.031,0.037-0.031c0.006-0.001,0.015-0.021,0.015-0.045
	c-0.002-0.024,0.021-0.045,0.029-0.045s0.015-0.021,0.015-0.046s0.021-0.045,0.03-0.045s0.024-0.126,0.02-0.177
	c-0.003-0.051-0.03-0.092-0.037-0.092c-0.009,0-0.027-0.101-0.023-0.146c0.002-0.042-0.018-0.077-0.026-0.077
	c-0.007,0-0.016-0.012-0.016-0.025l0.046-0.021l0.067-0.035c-0.063-0.055-0.093-0.099-0.083-0.1c0.008,0,0.014-0.02,0.014-0.044
	c0-0.026,0.041-0.066,0.091-0.091l0.05-0.177c-0.006-0.174,0.014-0.316,0.021-0.316c0.008,0-0.016-0.084-0.021-0.102
	c-0.007-0.018,0.03-0.033,0.08-0.034l0.038-0.118c0.002-0.083,0.027-0.152,0.037-0.152c0.006,0,0.033-0.04,0.058-0.09h0.002
	c0.049,0,0.09-0.022,0.09-0.03c0-0.009-0.07,0.015-0.062-0.012c0.01-0.026-0.06-0.01-0.049-0.04
	c0.011-0.028,0.061-0.052,0.111-0.052l0.006-0.006c-0.004-0.07-0.049-0.181-0.096-0.244l0.133-0.064l0.032-0.018
	c-0.045-0.04-0.058-0.072-0.05-0.072c0.009,0,0.055-0.123,0.104-0.271c0.022-0.017,0.207-0.025,0.228-0.047l0.039-0.052
	c0.003-0.096,0.026-0.173,0.035-0.173s0.014-0.02,0.014-0.046c0-0.023,0.023-0.044,0.03-0.044c0.01-0.001,0.006-0.051-0.007-0.115
	l0.021-0.02c0.011-0.01,0.128-0.025,0.137-0.047l0.018-0.051c-0.011-0.046,0.08,0.002-0.046-0.023
	C31.133,7.674,31.107,7.698,31.205,7.661"/>
<path fill="#231F20" d="M23.451,9.984l0.048,0.133l0.08,0.031c0.032-0.042,0.076-0.039,0.103,0.011h0.002
	c0.049,0,0.099,0.035,0.11,0.077c0.01,0.042,0.036,0.102,0.044,0.102c0.009,0,0.03,0.006,0.03,0.015s-0.021,0.029-0.044,0.031
	c-0.026,0-0.046,0.006-0.046,0.016v0.074c0,0.023,0.037,0.032,0.085,0.018l-0.04,0.071c-0.049,0-0.09,0.007-0.09,0.017
	c0,0.007-0.012,0.045-0.03,0.067c-0.018,0.019-0.067,0.096-0.075,0.096c-0.009,0-0.03,0.042-0.03,0.09
	c-0.055,0.036-0.177,0.006-0.229,0.047l-0.009,0.007c0.007,0.071-0.011,0.127-0.034,0.127c-0.026,0-0.062,0.039-0.083,0.086
	l-0.009,0.006c-0.05,0-0.046,0.057,0.009,0.128l-0.053,0.051l-0.02,0.021c-0.064-0.012-0.117-0.012-0.117-0.004
	c0.002,0.009-0.02,0.03-0.044,0.031c-0.025,0-0.046,0.02-0.044,0.044c0,0.024-0.021,0.045-0.046,0.045
	c-0.024,0.001-0.046,0.008-0.046,0.016c0,0.009-0.025,0.03-0.057,0.027c-0.03-0.001-0.08,0.011-0.08,0.02
	c0,0.01-0.019,0.03-0.044,0.03c-0.024,0.001-0.046,0.008-0.046,0.015c0,0.008,0.003,0.014,0.005-0.006
	c0.004-0.02-0.096-0.001-0.096,0.008c0,0.009-0.057,0.024-0.126,0.018l-0.011,0.014l-0.057,0.044
	c0.034,0.223,0.067,0.403,0.076,0.403c0.009,0,0.029,0.024,0.027,0.054c-0.002,0.03,0.046,0.081,0.097,0.08l0.006,0.04
	c-0.026,0.079-0.043,0.157-0.032,0.175c0.009,0.021-0.023,0.054-0.028,0.108l0.013,0.037c0.049,0,0.09,0.023,0.092,0.053
	c0,0.028,0.007,0.08,0.016,0.08s0.03,0.004,0.03,0.01s-0.039,0.096-0.03,0.17c0,0,0.013,0.006-0.013,0.043
	c-0.039,0.054-0.051,0.078-0.051,0.078c0.043-0.17,0.027-0.032,0.051-0.032c0.025,0,0.046,0.021,0.048,0.047
	c0,0.027,0.105,0.093,0.176,0.102l0.051-0.018l0.046-0.09l0.039-0.017c0.054,0.008,0.098,0.008,0.098,0
	c0-0.007,0.02-0.032,0.042-0.033c0.025-0.002,0.139-0.05,0.139-0.058c0-0.007,0.041-0.011,0.092,0.014
	c0.162,0.007-0.057-0.025,0.044-0.045l0.125-0.028c-0.018,0.038-0.03,0.064-0.03,0.058c0-0.01,0.011-0.049,0.029-0.069
	c0.016-0.021,0.067-0.097,0.076-0.097s0.041,0.019,0.059,0.041c0.014,0.024,0.099,0.035,0.201,0.018l0.046,0.028
	c0,0.048,0.03,0.108,0.065,0.131c0.037,0.023,0.073,0.053,0.075,0.062c0,0.008,0.02,0.03,0.046,0.03
	c0.025,0,0.044,0.019,0.044,0.043c0,0.024-0.005,0.045-0.014,0.045c-0.007,0-0.023,0.031-0.013,0.07
	c0.009,0.037,0.021,0.135,0.011,0.168c-0.011,0.031,0.021,0.082,0.021,0.091c0,0.008-0.061,0.066-0.134,0.112l-0.003,0.009
	l-0.065,0.118c-0.012,0.033-0.024,0.069-0.024,0.078c0.001,0.007-0.002,0.021-0.009,0.009c-0.005-0.012-0.043-0.025-0.051-0.025
	c-0.007,0.001-0.03,0.008-0.03,0.017s-0.034,0.026-0.075,0.024c-0.041-0.004-0.153,0.014-0.153,0.022
	c0,0.008-0.065,0.02-0.142,0.008l-0.04,0.023c0,0.048-0.041,0.11-0.091,0.134v0.001v0.09l-0.027,0.015
	c-0.06-0.007-0.11-0.019-0.11-0.028s-0.039,0.009-0.087,0.057l-0.003,0.003l-0.052,0.018c-0.073-0.009-0.121-0.036-0.108-0.059
	c0.01-0.024-0.085,0.007-0.103,0.071l-0.011,0.018l-0.092,0.046l-0.018,0.049c0.011,0.073,0.013,0.131,0.004,0.131
	c-0.007,0-0.03,0.007-0.03,0.016c0,0.007-0.02,0.029-0.044,0.029c-0.024,0.002-0.046,0.042-0.044,0.09l-0.009,0.024
	c-0.019,0.037-0.028,0.065-0.019,0.065c0.007,0,0.041,0.085,0.053,0.189l-0.021,0.08c-0.007,0.021-0.104,0.01-0.089,0.136
	l0.139,0.088l0.02,0.058c-0.011,0.09-0.025,0.167-0.034,0.167c-0.007,0,0.001,0.03,0.039,0.066c0.039,0.037,0.07,0.087,0.07,0.111
	c0.001,0.026-0.006,0.044-0.015,0.045c-0.009,0-0.03,0.007-0.03,0.016s-0.021,0.03-0.046,0.03c-0.025,0-0.041,0.034-0.036,0.074
	c0.004,0.039,0.02,0.105,0.053,0.105c0.032-0.001,0.08,0.017,0.085,0.041c0.003,0.022,0.046,0.137,0.055,0.137
	s0.044-0.038,0.062-0.085l0.013-0.005c0.06-0.042,0.17-0.012,0.227-0.048c0-0.049,0.021-0.089,0.046-0.089s0.065-0.031,0.09-0.067
	c0.025-0.039,0.106-0.09,0.181-0.115l0.048,0.008c-0.002,0.02-0.002-0.005-0.002-0.054c0.131,0.005,0.101,0.076,0.137,0.089
	c0.051-0.002,0.094,0.039,0.094,0.089c0.156,0.022-0.049-0.015,0.045-0.047c0.053-0.02,0.083,0.019,0.138-0.002l0.044-0.089
	l0.144-0.02c0.073,0.057,0.133,0.127,0.133,0.151s0.007,0.045,0.014,0.045c0.009,0,0.032,0.006,0.032,0.016
	c0,0.008,0.007,0.029,0.016,0.029s0.027,0.021,0.023,0.05c-0.003,0.029,0.028,0.084,0.053,0.084c0.026,0,0.018,0.062-0.016,0.141
	c-0.036,0.078,0.063,0.043,0.063,0.052c0.002,0.008-0.041,0.05-0.09,0.074v0.001l-0.018,0.076c0.035-0.018,0.065-0.011,0.065,0.014
	c0,0.024-0.007,0.045-0.016,0.045c-0.007,0-0.036,0.049-0.044,0.112l-0.03,0.023l-0.011,0.006c-0.069,0.022-0.126,0.048-0.126,0.056
	c0,0.008-0.028,0.036-0.063,0.044c-0.034,0.008-0.117,0.038-0.117,0.047c0,0.008-0.041,0.03-0.093,0.031l-0.016,0.012
	c0.01,0.092,0.005,0.17-0.009,0.175c-0.016,0.004-0.11,0.046-0.11,0.054c0,0.009-0.02,0.029-0.044,0.029
	c-0.027,0.001-0.046,0.008-0.046,0.017c0,0.008-0.1,0.017-0.22,0.003l-0.099,0.03l-0.091,0.135l-0.028,0.014
	c-0.036-0.033-0.083-0.017-0.108,0.032v0.001c-0.106,0.024-0.005-0.103-0.092-0.044l-0.016,0.008
	c0.034,0.045,0.046,0.087,0.028,0.093c-0.02,0.006-0.096,0.082-0.146,0.087c-0.05,0.004-0.185,0.033-0.185,0.024
	c0-0.008-0.007-0.029-0.016-0.029c-0.007,0-0.031,0.008-0.031,0.017s-0.018,0.043-0.041,0.061c-0.021,0.018,0.043,0.02,0.043,0.028
	c0,0.009-0.021,0.03-0.046,0.03c-0.027,0-0.046,0.021-0.046,0.046c0.002,0.024-0.023,0.048-0.052,0.051
	c-0.03,0.003-0.014-0.051-0.039-0.051c-0.026,0-0.046,0.021-0.046,0.046c0,0.024-0.03,0.045-0.067,0.045
	c-0.039,0.001-0.108,0.014-0.099,0.027c0.009,0.015-0.071,0.044-0.083,0.02c-0.016-0.024,0.014-0.016,0.061,0.017l-0.174-0.015
	c-0.064-0.009-0.24-0.023-0.275-0.044l-0.002-0.088c-0.049-0.024-0.085,0.02-0.137,0.001c-0.001-0.049,0-0.109,0.004-0.132
	c0.002-0.023-0.013-0.046-0.021-0.046c-0.007,0-0.028-0.005-0.026-0.013c0.001-0.006,0.065-0.047,0.048-0.192
	c0,0,0.024,0.095-0.021-0.067c-0.025-0.088,0-0.064,0-0.064c-0.03-0.057,0.057-0.019,0.055-0.068v-0.002
	c-0.05-0.023-0.096-0.091-0.103-0.149c-0.007-0.059,0.016-0.208,0.025-0.208s0.03-0.023,0.028-0.054
	c0-0.029,0.023-0.065,0.052-0.046l-0.007-0.079c-0.05,0-0.099-0.066-0.108-0.15l0.016-0.072c0.05-0.025,0.091-0.066,0.091-0.09
	c0-0.025,0.007-0.045,0.014-0.045c0.009,0,0.027-0.035,0.021-0.079l0.1-0.057c0.058-0.038-0.112-0.058-0.048-0.09l0.048-0.025
	c-0.002-0.036-0.009-0.065-0.018-0.065c-0.007,0-0.03-0.02-0.03-0.045c0-0.024-0.063-0.084-0.138-0.133l-0.03-0.051
	c-0.011-0.094-0.025-0.172-0.034-0.172s-0.016-0.018,0-0.04l0.061-0.051l0.007-0.009c-0.03-0.069-0.049-0.125-0.039-0.125
	c0.007-0.001,0.023-0.047,0.014-0.103l0.015-0.033c0-0.003,0.09-0.044,0.09-0.044l0.018-0.093c-0.036,0.002-0.064-0.017-0.064-0.042
	c0-0.025,0.062-0.045,0.14-0.045l-0.097-0.045l-0.062-0.03c0.009-0.009,0.025-0.015,0.034-0.015c0.007,0,0.029-0.006,0.029-0.014
	c0-0.009,0.008-0.03,0.016-0.03c0.009,0,0.03-0.008,0.03-0.015c0-0.009,0.001-0.08,0.005-0.14c0.003-0.059-0.1-0.167-0.1-0.173
	c0-0.009,0.005-0.029,0.015-0.031c0.008,0,0.058-0.075,0.092-0.167l-0.02-0.146l-0.092-0.045l-0.029-0.067
	c0.014-0.085,0.02-0.156,0.011-0.156c-0.007,0-0.03-0.025-0.028-0.055c0-0.03-0.011-0.08-0.02-0.08c-0.006,0-0.03-0.028-0.03-0.063
	c0-0.035,0.005-0.116,0.014-0.116c0.009-0.001,0.025-0.12,0.016-0.268c-0.006-0.146,0.023-0.448,0.102-0.448l-0.096-0.045
	l-0.059-0.03c0.007-0.008,0.032-0.024,0.057-0.035c0.023-0.01,0.05-0.063,0.055-0.108c0.007-0.046-0.099-0.034-0.098-0.071
	c0.002-0.035,0.005-0.076,0.016-0.082c0.012-0.007,0.071-0.042,0.069-0.049c0-0.008,0.021-0.051,0.048-0.076
	c0.029-0.025-0.094-0.05-0.094-0.059c0-0.007,0.009-0.03,0.015-0.03c0.009,0,0.03-0.007,0.03-0.014c0-0.009-0.016-0.04-0.036-0.049
	c-0.021-0.01-0.057-0.046-0.057-0.071c0-0.024-0.007-0.045-0.016-0.045c-0.007,0.002-0.03-0.032-0.03-0.073
	c0-0.042,0.003-0.149,0.012-0.149s0-0.047-0.036-0.101l0.02-0.034l0.091-0.001l0.008-0.004c0.021-0.048,0.043-0.086,0.052-0.086
	s0.032-0.025,0.033-0.054c0-0.03-0.01-0.08-0.019-0.08s-0.032-0.029-0.032-0.065c0-0.036-0.005-0.101-0.013-0.084
	c-0.003,0.017-0.026-0.078-0.014-0.084c0.009-0.006,0.071-0.042,0.071-0.051c0-0.007,0.03-0.005,0.069,0.029l0.021-0.015
	c0-0.049,0.037-0.119,0.082-0.155c0.048-0.035,0.1-0.078,0.1-0.086c0-0.008,0.007-0.02,0.017-0.006
	c0.009,0.014,0.108,0.085-0.085,0.137c0,0-0.239,0.022,0.16-0.118l0.039-0.015c0.079,0.008,0.154-0.055,0.167-0.137l0.021-0.029
	v-0.003c0.05-0.025,0.09-0.063,0.088-0.087c0-0.024,0.044-0.041,0.098-0.037l0.039-0.01c0,0,0.023-0.071,0.137-0.045l0.009,0.001
	c0.021,0.048,0.059,0.087,0.085,0.087c0.024,0,0.065-0.03,0.09-0.068c0.024-0.037,0.052-0.066,0.06-0.068
	c0.009,0,0.03-0.04,0.029-0.089l0.036-0.018c0.056,0.034,0.103,0.055,0.103,0.047s0.021-0.029,0.05-0.026
	c0.026,0.001,0.087-0.012,0.087-0.02c0-0.009,0.041-0.031,0.092-0.031c0.009-0.004,0.028-0.084,0.044-0.089
	c0.052-0.023,0.08,0.015,0.137-0.002C23.53,9.984,23.266,9.979,23.451,9.984"/>
<path fill="#231F20" d="M20.335,11.674c0.037-0.026,0.069-0.039,0.069-0.03c0,0.008,0.032,0.025,0.073,0.02
	c0.039-0.006,0.112,0.014,0.112,0.023c0,0.008,0.016,0.051,0.036,0.081c0.02,0.027,0.103,0.089,0.103,0.097
	c0,0.009,0.041,0.028,0.092,0.028c0.028,0.051-0.092,0.063-0.044,0.091l0.092,0.043l0.039,0.098
	c-0.021,0.144-0.028,0.262-0.021,0.261c0.009,0,0.028,0.028,0.026,0.063c-0.001,0.036-0.076,0.137-0.175,0.163l-0.018,0.056
	c0.062,0.018,0.117,0.033,0.127,0.035c0.011,0-0.062,0.073-0.059,0.109c0.002,0.036-0.008,0.114-0.017,0.114
	c-0.007,0-0.041,0.056-0.055,0.122l0.024,0.013l0.027,0.015c0.062-0.009,0.112,0.005,0.112,0.029c0,0.025,0.02,0.053,0.041,0.064
	c0.023,0.01,0.052,0.045,0.052,0.068c0,0.025,0.009,0.045,0.018,0.045c0.009,0,0.03,0.02,0.03,0.044c0,0.024-0.025,0.042-0.052,0.04
	c-0.03-0.003-0.088,0.077-0.092,0.164c-0.003,0.087-0.027,0.38-0.018,0.38c0.008,0,0.03,0.007,0.03,0.015
	c0,0.008-0.005,0.03-0.014,0.03s-0.035,0.055-0.041,0.119c-0.004,0.067-0.038,0.285-0.046,0.285s-0.001,0.03,0.032,0.067
	l-0.016,0.113c-0.023,0.047-0.037,0.089-0.029,0.089c0.009,0,0.029,0.029,0.029,0.062c-0.004,0.036,0.044,0.116,0.096,0.116
	l0.013,0.036c-0.032,0.031-0.052,0.055-0.043,0.055c0.009-0.002,0.03,0.019,0.027,0.045c-0.002,0.027,0.012,0.088,0.021,0.088
	c0.009,0,0.03,0.02,0.03,0.045c0,0.024,0.007,0.045,0.018,0.045c0.007,0,0.03,0.02,0.03,0.043c0,0.026-0.007,0.046-0.014,0.046
	c-0.009,0-0.037,0.018-0.042,0.039c-0.005,0.023-0.012,0.087,0.014,0.077c0.027-0.011,0.037,0.063,0.028,0.063
	c-0.007,0-0.03,0.053-0.028,0.117c0,0.066-0.005,0.242-0.012,0.242c-0.009,0-0.03,0.007-0.03,0.016c0,0.009,0.005,0.03,0.016,0.03
	c0.008-0.001,0.034,0.002,0.037,0.007c0.005,0.003-0.057,0.061-0.062,0.089c-0.005,0.027,0.055,0.089,0.055,0.098
	c0.002,0.008-0.009,0.04-0.025,0.056c-0.014,0.015-0.011,0.107-0.001,0.107c0.009,0,0.036,0.045,0.041,0.098
	c0.005,0.053-0.026,0.306-0.051,0.306c-0.025,0.001-0.046,0.042-0.044,0.091c-0.03,0.018-0.175,0.033-0.183,0.047l-0.055,0.072
	c0.055-0.016,0.102-0.008,0.102,0.016c0,0.025-0.041,0.046-0.091,0.047c-0.016,0.007,0.007,0.118,0,0.134
	c0,0-0.172,0.039-0.181,0.047c0,0.049-0.041,0.109-0.09,0.136c-0.034,0.072,0.002,0.13-0.044,0.179
	c-0.05,0.001-0.131,0.062-0.181,0.137l-0.053,0.021c-0.046-0.012-0.105-0.029-0.13-0.041c-0.027-0.013-0.049-0.009-0.051,0.004
	c-0.004,0.013-0.041,0.013-0.041,0.004c0-0.008-0.007-0.03-0.014-0.03c-0.009,0-0.032,0.008-0.03,0.017
	c0,0.009,0.041-0.029-0.048-0.014c-0.083,0.014-0.08-0.027-0.08-0.027c-0.107,0.016-0.193,0.023-0.193,0.015
	c0-0.008-0.046-0.021-0.103-0.012l-0.036-0.017c-0.051-0.073-0.1-0.134-0.108-0.134c-0.009,0-0.033-0.04-0.033-0.089
	c-0.028-0.023-0.121-0.01-0.138-0.043l-0.03-0.066c0.043,0.013,0.075-0.008,0.075-0.045c0-0.036-0.041-0.113-0.092-0.113
	l-0.012-0.083c0.032,0.021,0.062-0.009,0.065-0.067c0.004-0.06-0.018-0.208-0.026-0.208c-0.007,0-0.028-0.018-0.027-0.04
	c0.004-0.023-0.012-0.093-0.021-0.093c-0.005,0-0.026-0.021-0.022-0.046c0.002-0.026-0.05-0.089-0.1-0.087l-0.028-0.085
	c0.014-0.102,0.02-0.184,0.01-0.184c-0.008,0-0.032-0.02-0.032-0.045c0-0.024,0.014-0.039,0.032-0.03
	c0.016,0.009,0.007-0.061-0.001-0.061c-0.007,0-0.032-0.02-0.032-0.044c0-0.023-0.005-0.044-0.014-0.044
	c-0.009,0-0.03-0.024-0.028-0.054c0.003-0.03-0.011-0.08-0.02-0.08c-0.009,0-0.031-0.005-0.027-0.014
	c0.003-0.007,0.041-0.038,0.041-0.046c0-0.008-0.018-0.11-0.04-0.208c-0.023-0.098,0.036-0.187,0.036-0.194
	c0-0.008-0.007-0.031-0.016-0.031c-0.007,0-0.025-0.083-0.016-0.184c0.009-0.102-0.027-0.353-0.036-0.353
	c-0.011,0-0.03-0.023-0.028-0.055c0-0.03-0.011-0.079-0.02-0.079s-0.023-0.03-0.014-0.065c0.009-0.035,0.028-0.044,0.028-0.07
	c0-0.024-0.009-0.044-0.016-0.044c-0.009,0-0.033-0.029-0.033-0.066c0-0.036-0.042-0.133-0.092-0.157l-0.011-0.065
	c0.003-0.087,0.016-0.159,0.023-0.159c0.009,0,0.028-0.025,0.026-0.053c-0.001-0.029,0.009-0.082,0.019-0.082
	c0.008,0,0.028-0.021,0.028-0.045c0-0.025,0.008-0.048,0.018-0.054c0.01-0.006,0.075-0.043,0.075-0.052
	c0-0.008,0.071-0.019,0.16-0.008c0.088,0.011,0.177-0.029,0.2-0.086l0.049,0.017c0.052,0.073,0.102,0.133,0.11,0.133
	c0.009,0,0.03,0.02,0.03,0.044c0,0.025,0.043,0.065,0.093,0.089l0.035,0.096c-0.018,0.12-0.024,0.219-0.016,0.218
	s0.044,0.048,0.062,0.105c0.02,0.058,0.011,0.252,0.002,0.252c-0.009,0-0.034,0.012-0.039,0.028
	c-0.003,0.013-0.043,0.107-0.05,0.107c-0.011,0-0.032,0.021-0.032,0.046c0,0.023,0.009,0.044,0.018,0.044s0.039,0,0.048,0.001
	c0.009,0-0.062,0.072-0.059,0.109c0.002,0.034-0.01,0.115-0.018,0.115c-0.009,0-0.032,0.007-0.032,0.015
	c0,0.009,0.008,0.03,0.018,0.03c0.009,0,0.034,0.031,0.039,0.069c0.007,0.039,0.08,0.198,0.129,0.198l0.021,0.081
	c-0.008,0.104-0.03,0.178-0.046,0.166c-0.014-0.011-0.009,0.066,0,0.066c0.007,0,0.03,0.026,0.036,0.057
	c0.002,0.031,0.05,0.167,0.058,0.167c0.007,0,0.018,0.036,0.002,0.082c-0.016,0.043-0.009,0.188,0,0.188
	c0.009-0.002,0.031,0.019,0.031,0.043c0.001,0.024,0.008,0.045,0.016,0.045c0.009,0,0.023,0.057,0.014,0.128l0.018,0.05
	c0.077,0.048,0.139,0.095,0.14,0.103c0,0.01,0.02,0.03,0.046,0.03c0.025,0,0.021,0.039-0.008,0.086l0.008,0.004
	c0.05-0.002,0.093,0.019,0.093,0.042c0,0.025,0.021,0.046,0.046,0.044c0.024,0,0.071-0.048,0.103-0.106
	c0.028-0.057-0.044-0.036-0.027-0.045c0.016-0.009,0.006-0.118-0.001-0.118c-0.009,0-0.036-0.016-0.04-0.036
	c-0.005-0.02-0.046-0.098-0.054-0.098c-0.009,0-0.031-0.005-0.029-0.012c0-0.007,0.041-0.058,0.039-0.087
	c-0.003-0.031,0.011-0.079,0.018-0.079c0.009,0,0.016-0.014-0.001-0.032c-0.018-0.015-0.009-0.147,0-0.147s0.03-0.021,0.03-0.045
	s0.007-0.045,0.015-0.045c0.01,0,0.01-0.041-0.017-0.089c-0.024-0.136,0.045-0.09,0.045-0.09l0.016-0.073
	c-0.008-0.083-0.018-0.166-0.018-0.181c0-0.016-0.002-0.023-0.002-0.032v-0.121c0.002-0.049,0.009-0.063,0.021-0.088
	c0.012-0.025,0.011-0.051-0.005-0.059c-0.014-0.006-0.055-0.049-0.044-0.073c0.013-0.022,0.032-0.05,0.04-0.051
	c0.008-0.003-0.05-0.053-0.036-0.07c0.014-0.015,0.014-0.06,0.005-0.06c-0.009,0-0.014-0.027,0.005-0.062
	c0.021-0.031,0-0.073-0.007-0.073c-0.007,0-0.033-0.047-0.037-0.106c-0.003-0.059,0.009-0.207,0.017-0.207
	c0.011,0,0.031-0.02,0.031-0.045c0-0.024,0.007-0.045,0.016-0.045c0.008,0,0.03-0.037,0.028-0.082c0-0.045-0.012-0.09-0.026-0.08
	c-0.012,0.01-0.014-0.062-0.005-0.063c0.009,0,0.03-0.028,0.03-0.064c0-0.035,0.026-0.099,0.061-0.082l-0.016-0.077
	c-0.052,0-0.096-0.021-0.103-0.043c-0.003-0.026-0.044-0.136-0.053-0.136c-0.007,0.001-0.03-0.005-0.027-0.011
	c0-0.008,0.039-0.074,0.036-0.125c-0.003-0.05,0.013-0.177,0.02-0.177c0.009,0,0.023-0.008,0.018-0.014
	c-0.008-0.009-0.088-0.115-0.099-0.219c-0.011-0.104,0.021-0.349,0.028-0.349c0.009,0,0.03-0.025,0.027-0.056
	c-0.002-0.029,0.009-0.08,0.02-0.08c0.007,0,0.03-0.005,0.028-0.011c0-0.008-0.064-0.098-0.087-0.177
	C19.893,12.262,20,12.208,20,12.201c0-0.008-0.02-0.03-0.041-0.03c-0.021-0.001,0-0.088,0.009-0.088c0.007,0,0.03-0.022,0.03-0.046
	c0-0.023,0.04-0.044,0.089-0.045c0.01-0.011,0.046-0.136,0.046-0.136c0.023-0.024,0.121-0.032,0.137-0.045
	C20.268,11.761,20.297,11.7,20.335,11.674"/>
<path fill="#231F20" d="M16.8,14.043c0.009,0,0.078,0.019,0.152,0.042l0.029,0.006c0.06-0.005,0.11,0,0.11,0.007
	c0,0.009,0.021,0.03,0.046,0.03c0.025,0,0.046,0.007,0.046,0.016c0,0.008,0.041,0.027,0.092,0.027l0.039,0.037
	c0.003,0.103,0.016,0.183,0.025,0.178c0.009-0.004,0.055,0.01,0.03,0.065l0.09-0.013c0,0,0.037-0.126,0.137-0.091
	c0,0.049,0.021,0.09,0.048,0.089c0.025,0,0.044,0.007,0.044,0.014c0,0.009,0.012,0.034,0.026,0.038
	c0.018,0.004,0.112,0.043,0.112,0.051c0,0.009,0.043,0.029,0.092,0.029l0.036,0.01c0.005,0.068,0.02,0.123,0.026,0.123
	c0.009,0,0.03,0.008,0.03,0.016s0.066,0.079,0.144,0.141c0.078,0.061,0.083,0.333,0.077,0.333c-0.009,0-0.034,0.017-0.038,0.036
	c-0.005,0.02-0.044,0.1-0.053,0.1c-0.007,0-0.01,0.021,0.011,0.048c0.025,0.027,0.046,0.13,0.037,0.13
	c-0.007,0-0.028,0.033-0.026,0.072c0.003,0.039-0.009,0.152-0.018,0.153c-0.007,0-0.018,0.01-0.004,0.018
	c0.014,0.012,0.014,0.117,0.005,0.117c-0.007,0-0.03,0.029-0.03,0.064S18.111,16,18.104,16c-0.009,0-0.032,0.007-0.032,0.016
	c0.002,0.008,0.009,0.068,0.016,0.114c0.007,0.047,0.004,0.099-0.034,0.104l0.023,0.08l0.092,0.043c0.019,0.052-0.023,0.082,0,0.135
	c0.003,0.013,0.085,0.034,0.09,0.044c0.002,0.049,0.009,0.089,0.019,0.089c0.008,0,0.034,0.017,0.037,0.036
	c0.003,0.02,0.048,0.099,0.057,0.099c0.009-0.001,0.028,0.02,0.028,0.043c0,0.025,0.009,0.044,0.019,0.044
	c0.008,0,0.019,0.061,0.007,0.136l0.025,0.044c0.049,0.025,0.092,0.05,0.092,0.059s0.042,0.029,0.092,0.029l0.038,0.08
	c0.005,0.104-0.002,0.179-0.02,0.168c-0.016-0.01-0.008,0.064,0,0.064c0.009,0,0.034,0.041,0.038,0.092
	c0.005,0.051,0.028,0.226,0.014,0.23s-0.108,0.044-0.108,0.052c0,0.009-0.039,0.03-0.09,0.03l-0.033,0.054
	c0.018,0.094,0.027,0.171,0.02,0.171c-0.008,0-0.03,0.02-0.026,0.042c0.002,0.021-0.011,0.094-0.02,0.094
	c-0.005,0-0.018,0.064-0.005,0.142l-0.021,0.037c-0.051,0-0.092,0.021-0.092,0.046c0.002,0.025-0.068,0.037-0.151,0.027l-0.032,0.02
	c-0.05,0.074-0.11,0.135-0.135,0.136c-0.025,0-0.046,0.019-0.046,0.044c0,0.025-0.041,0.046-0.091,0.046
	c-0.018,0.037,0.025,0.103,0,0.136l-0.01,0.012c-0.043,0.019-0.079,0.04-0.079,0.048s-0.021,0.029-0.046,0.03
	c-0.025,0-0.046,0.007-0.046,0.016c0.001,0.008-0.041,0.029-0.09,0.03c-0.1-0.033,0.108-0.058-0.046-0.044
	c0,0-0.004,0.07-0.091,0.045c0-0.048-0.022-0.087-0.046-0.087c-0.026,0-0.046,0.006-0.046,0.015s-0.089,0.005-0.201-0.024
	l-0.028,0.012c-0.071,0.024,0.087,0.07-0.046,0.045c-0.063-0.014,0.082-0.092-0.046-0.043l-0.011,0.001
	c-0.018,0.047-0.055,0.088-0.08,0.088c-0.025,0.001-0.043,0.058-0.038,0.128l-0.007,0.005l-0.088,0.055
	c-0.153-0.002-0.275-0.025-0.275-0.05c-0.002-0.023-0.021-0.044-0.048-0.044c-0.025,0.001-0.059-0.056-0.073-0.126l-0.02-0.007
	c-0.094-0.031-0.092,0.045-0.092,0.045l-0.075,0.018c-0.083-0.007-0.154-0.021-0.154-0.03c0-0.007-0.025-0.028-0.055-0.028
	c-0.03,0.003-0.083-0.007-0.083-0.015c0-0.008-0.021-0.03-0.044-0.03c-0.025,0.001-0.046-0.019-0.048-0.044
	c0-0.024-0.007-0.045-0.014-0.045c-0.009,0-0.032-0.019-0.032-0.044c0-0.024-0.041-0.044-0.092-0.044
	c-0.036-0.106,0.053-0.124,0.044-0.181c-0.051-0.023-0.093-0.093-0.093-0.153c0-0.061,0.005-0.204,0.014-0.204
	c0.009,0,0.03-0.007,0.03-0.015s-0.039-0.056-0.083-0.088l0.082,0.012l0.043,0.005c-0.05-0.075-0.101-0.158-0.115-0.184
	c-0.015-0.025,0.069-0.039,0.065-0.087c-0.003-0.049-0.002-0.092-0.011-0.092s-0.024-0.078-0.018-0.172
	c0.009-0.095,0.027,0.008,0.025-0.028c-0.002-0.035-0.002-0.069-0.011-0.069c-0.008,0-0.048-0.118-0.067-0.262l0.033-0.097
	c0.049-0.049,0.083-0.09,0.076-0.09c-0.009,0-0.028-0.022-0.028-0.054c0-0.03-0.01-0.08-0.018-0.08c-0.009,0-0.036-0.027-0.039-0.06
	c-0.005-0.033-0.028-0.156-0.011-0.147c0.016,0.009,0.039-0.059,0.069-0.058c0.03,0.003-0.016-0.048-0.025-0.048
	c-0.007,0-0.03-0.007-0.03-0.015c0-0.007-0.007-0.057-0.012-0.09c-0.009-0.034-0.03-0.164-0.021-0.164
	c0.008,0-0.018-0.007-0.079-0.015c-0.061-0.009,0.149-0.079,0.146-0.14c-0.005-0.061-0.003-0.208-0.014-0.213
	c-0.011-0.004-0.073-0.056-0.073-0.079c-0.001-0.026,0.007-0.046,0.014-0.046c0.009,0,0.023-0.049,0.014-0.109
	c-0.008-0.06-0.044-0.249-0.056-0.249c-0.013,0.001,0.161-0.021,0.159-0.046c0-0.025-0.011-0.056-0.023-0.067
	c-0.012-0.012-0.018-0.022-0.007-0.022c0.009,0,0.029-0.007,0.029-0.015s-0.009-0.04-0.023-0.052
	c-0.013-0.012-0.016-0.022-0.007-0.022s0.034-0.04,0.039-0.087c0.003-0.047,0.041-0.228,0.049-0.228
	c0.009,0,0.016-0.012-0.001-0.025c-0.014-0.013-0.009-0.065,0-0.065s0.05-0.081,0.073-0.182h0.001l0.002-0.005
	c0.075-0.047,0.135-0.09,0.135-0.101c0-0.008,0.02-0.022,0.044-0.016c0.026,0.008,0.092-0.021,0.092-0.029
	c0-0.007,0.013-0.042,0.03-0.058c0.018-0.015,0.106-0.069,0.106-0.078c-0.002-0.008,0.101-0.031,0.227-0.033l0.09-0.046
	c0.026-0.014,0.025-0.123,0.044-0.135l0.021-0.016c0.064,0.009,0.115-0.006,0.115-0.029C16.77,14.063,16.793,14.043,16.8,14.043"/>
<path fill="#FBB619" d="M16.825,14.983l0.061,0.001c0.015-0.026,0.032-0.007,0.032,0.042l0.096,0.029
	c0.124,0.007,0.225,0.034,0.225,0.042c0,0.008,0.041,0.029,0.089,0.05l0.005,0.009v0.089l0.043,0.039
	c0.078,0.028,0.138,0.235,0.142,0.312c0.002,0.077-0.057,0.175-0.049,0.178c0.003,0.004-0.004,0.032-0.004,0.038
	c0,0.007,0.018,0.015-0.034,0.016c-0.034,0.08,0.011,0.126-0.044,0.179c-0.05,0-0.089,0.023-0.089,0.033
	c0,0.007-0.026,0.019-0.057,0.026l-0.036,0.033l-0.042,0.04c0,0.052-0.021,0.095-0.048,0.095c-0.025,0-0.044,0.024-0.044,0.032
	c0,0.007-0.067,0.028-0.108,0.024c-0.042-0.005-0.092,0.031-0.111,0.08l-0.009,0.003c-0.114,0.027,0.046-0.007-0.032,0.014
	l-0.042-0.018c0,0.05-0.096,0.039-0.018,0.048c0,0,0.098,0.019-0.09-0.042c-0.098-0.034-0.137,0.046-0.137,0.046
	c-0.094,0.007-0.076-0.058-0.138-0.043c-0.023,0.026-0.085,0.005-0.137-0.043l-0.025-0.067c0.012-0.086,0.002-0.157-0.007-0.157
	c-0.009,0-0.017-0.062-0.017-0.087c0-0.026,0.022-0.047,0.03-0.048c0.009,0,0.014-0.02,0.014-0.045c0-0.024,0.023-0.045,0.03-0.045
	c0.009,0,0.014-0.14-0.002-0.169c-0.016-0.031-0.007-0.055,0-0.055c0.009,0,0.016-0.02,0.015-0.046c0-0.024-0.062-0.059,0.014-0.059
	c0,0,0.097,0.046,0,0c-0.039-0.018-0.009-0.049-0.009-0.049c-0.003-0.04,0.014-0.071,0.023-0.071c0.008,0,0.035-0.031,0.06-0.068
	c0.027-0.037,0.067-0.068,0.074-0.068c0.011,0,0.016-0.021,0.016-0.045c0-0.024-0.005-0.066,0.03-0.033c0,0-0.003-0.015,0.009-0.047
	c0.034-0.075,0.069-0.004,0.036-0.051l0.016-0.006l0.048-0.015c0.074,0.008,0.092-0.035,0.088-0.132c0,0,0.036-0.031,0.044-0.033
	C16.786,14.917,16.825,14.983,16.825,14.983"/>
<path fill="#FBB619" d="M16.894,17.043l0.079,0.018c0.083-0.012,0.15,0.001,0.15,0.009c0,0.009,0.039-0.017,0.083-0.056l0.1,0.026
	c0.026,0.047,0.099,0.097,0.162,0.109c0.063,0.012,0.115,0.042,0.115,0.066c0,0.024,0.023,0.045,0.032,0.045
	c0.009,0,0.016,0.174,0.018,0.239c0,0.065,0.023,0.118,0.032,0.118c0.009,0,0.028,0.031,0.007,0.052
	c-0.021,0.02-0.014,0.038-0.007,0.038c0.009,0,0.016,0.021,0.016,0.044c0,0.025,0.046,0.072,0.046,0.078
	c0,0.007-0.02,0.012-0.028,0.012c-0.009,0-0.018,0.021-0.017,0.045c0,0.024-0.019,0.045-0.03,0.045c-0.007,0-0.02,0.052-0.018,0.08
	c0.001,0.032-0.016,0.054-0.041,0.054c-0.027,0.002-0.046,0.025-0.046,0.032c0,0.008-0.113,0.031-0.154,0.025
	c-0.043-0.002-0.075,0.015-0.075,0.023c0,0.008-0.02,0.014-0.044,0.015c-0.025,0-0.047,0.023-0.047,0.031s-0.047,0.005-0.095-0.006
	c-0.048-0.012-0.087-0.001-0.087,0.007c0,0.009-0.131,0.021-0.181,0.019c-0.051,0-0.094,0.021-0.092,0.029
	c0,0.008-0.043-0.005-0.092-0.029c-0.06-0.015-0.218-0.017-0.275,0.003c-0.149,0.051-0.053,0.021-0.053,0.021
	c0.058-0.004,0.007,0.004,0.007-0.021s-0.021-0.044-0.03-0.043c-0.009,0-0.018-0.101-0.002-0.114c0.016-0.012,0.009-0.021,0-0.021
	c-0.008,0-0.016-0.019-0.016-0.045c0-0.023-0.021-0.044-0.03-0.043c-0.009,0,0.018-0.022,0.06-0.052l-0.032-0.083l-0.138-0.088
	c-0.016-0.147,0.078-0.093,0.089-0.135l0.033-0.127c-0.044-0.078-0.039-0.144,0.011-0.144c0.025-0.01,0.03-0.123,0.043-0.134
	c0.053,0,0.112-0.042,0.135-0.09l0.003-0.002c0.05,0,0.09-0.022,0.09-0.031c-0.002-0.008,0.101-0.014,0.147-0.016
	c0.044-0.001,0.082-0.022,0.082-0.031c0-0.008,0.038,0.004,0.082,0.027L16.894,17.043z"/>
<path fill="#231F20" d="M34.617,14.001c0.062,0,0.096-0.02,0.096-0.069c0-0.044-0.038-0.06-0.079-0.06h-0.1v0.128H34.617z
	 M34.593,14.068h-0.059v0.196h-0.096v-0.471h0.181c0.122,0,0.189,0.038,0.189,0.14c0,0.084-0.055,0.13-0.124,0.131l0.126,0.2h-0.099
	L34.593,14.068z M34.615,14.359c0.186,0,0.336-0.146,0.336-0.327c0-0.182-0.15-0.329-0.336-0.329c-0.185,0-0.333,0.147-0.333,0.329
	C34.282,14.213,34.431,14.359,34.615,14.359 M34.615,13.609c0.24,0,0.432,0.189,0.432,0.423c0,0.231-0.191,0.421-0.432,0.421
	c-0.237,0-0.429-0.19-0.429-0.421C34.187,13.798,34.378,13.609,34.615,13.609"/>
<rect x="22.129" y="32.688" width="3" height="20.656"/>
<path d="M27.66,54.095h-8.062c-0.414,0-0.75-0.336-0.75-0.75s0.336-0.75,0.75-0.75h8.062c0.414,0,0.75,0.336,0.75,0.75
	S28.074,54.095,27.66,54.095z"/>
<rect x="7.5" y="24.345" width="33.602" height="1"/>
<path fill="#231F20" d="M10.484,30.535c0.146-0.238,0.206-0.43,0.206-0.927v-1.881h-0.583c-0.331,0-0.575,0-0.802,0.069l0.173-0.504
	c0.049-0.137,0.115-0.315,0.179-0.376c0.043-0.035,0.183-0.035,0.456-0.035h1.93c0.405,0,0.756,0,1.143-0.019l-0.158,0.499
	c-0.109,0.344-0.109,0.365-0.478,0.365h-0.777v1.886c0,0.498,0.059,0.684,0.205,0.922H10.484z"/>
<path fill="#231F20" d="M13.945,29.347c-0.232,0.013-0.541,0.076-0.541,0.325c0,0.128,0.126,0.22,0.286,0.22
	c0.112,0,0.177-0.034,0.255-0.068V29.347z M14.579,30.519c-0.147,0.053-0.22,0.069-0.301,0.069c-0.101,0-0.125-0.069-0.156-0.186
	c-0.069,0.041-0.36,0.186-0.705,0.186c-0.573,0-0.947-0.324-0.947-0.852c0-0.83,0.871-0.952,1.476-0.999v-0.092
	c0-0.244-0.143-0.244-0.272-0.244c-0.474,0-0.86,0.266-0.954,0.33L12.6,28.339c-0.023-0.077-0.035-0.14-0.035-0.228
	c0-0.296,1.018-0.435,1.367-0.435c0.403,0,0.6,0.058,0.8,0.203c0.219,0.162,0.219,0.4,0.219,0.666v0.946
	c0,0.504,0.089,0.573,0.243,0.771L14.579,30.519z"/>
<path fill="#231F20" d="M17.884,30.049c0.005,0.081-0.005,0.215-0.071,0.278c-0.083,0.081-0.428,0.261-1.032,0.261
	c-0.923,0-1.415-0.557-1.415-1.509c0-1.131,0.869-1.402,1.498-1.402c0.663,0,1.083,0.203,1.083,0.389
	c0,0.074-0.029,0.139-0.059,0.215l-0.201,0.464c-0.083-0.047-0.362-0.227-0.641-0.227c-0.313,0-0.587,0.18-0.587,0.592
	c0,0.4,0.22,0.638,0.569,0.638c0.331,0,0.658-0.243,0.805-0.349L17.884,30.049z"/>
<path fill="#231F20" d="M19.705,29.747c0.32,0,0.445-0.278,0.445-0.615c0-0.336-0.125-0.614-0.445-0.614
	c-0.319,0-0.443,0.278-0.443,0.614C19.262,29.469,19.386,29.747,19.705,29.747 M18.166,29.132c0-1.021,0.587-1.455,1.54-1.455
	c0.954,0,1.541,0.43,1.541,1.455c0,1.027-0.586,1.456-1.541,1.456C18.752,30.588,18.166,30.153,18.166,29.132"/>
<path fill="#231F20" d="M24.062,29.793c0.074,0.007,0.14,0.017,0.214,0.017c0.315,0,0.487-0.175,0.487-0.444
	c0-0.275-0.156-0.425-0.443-0.425c-0.086,0-0.171,0.012-0.258,0.017V29.793z M24.062,28.289c0.09,0.005,0.171,0.017,0.263,0.017
	c0.272,0,0.4-0.148,0.4-0.345c0-0.233-0.173-0.365-0.421-0.365c-0.082,0-0.163,0.011-0.242,0.016V28.289z M23.969,27.013
	c0.087-0.031,0.326-0.132,0.66-0.132c0.672,0,0.99,0.503,0.99,0.99c0,0.408-0.237,0.619-0.342,0.715
	c0.143,0.085,0.461,0.275,0.461,0.832c0,0.688-0.547,1.133-1.434,1.133c-0.216,0-0.433-0.016-0.649-0.016
	c-0.281,0-0.514,0-0.811,0.016c0.123-0.232,0.189-0.35,0.189-0.879v-1.98c0-0.509-0.043-0.552-0.125-0.742l0.996-0.121
	L23.969,27.013z"/>
<path fill="#231F20" d="M27.98,30.327c-0.144,0.14-0.564,0.261-0.829,0.261c-0.286,0-0.624-0.034-0.854-0.283
	c-0.154-0.169-0.154-0.396-0.154-0.68V28.65c0-0.383-0.096-0.62-0.147-0.765l1.214-0.209v1.561c0,0.243,0,0.422,0.32,0.422
	c0.23,0,0.302-0.104,0.355-0.145V28.65c0-0.417-0.03-0.671-0.147-0.916h1.355c-0.112,0.245-0.142,0.499-0.142,0.916v0.796
	c0,0.317,0.059,0.707,0.153,0.916l-1.096,0.185L27.98,30.327z"/>
<path fill="#231F20" d="M31.182,28.691c-0.018-0.087-0.113-0.348-0.396-0.348c-0.249,0-0.423,0.22-0.423,0.395
	c0,0.074,0.02,0.168,0.024,0.202L31.182,28.691z M32.26,30.24c-0.202,0.104-0.527,0.348-1.32,0.348c-1.032,0-1.553-0.609-1.553-1.52
	c0-0.904,0.579-1.392,1.505-1.392c1.048,0,1.32,0.795,1.32,1.34l-1.646,0.551c0.076,0.116,0.213,0.237,0.503,0.237
	c0.345,0,0.725-0.22,0.822-0.29L32.26,30.24z"/>
<path fill="#231F20" d="M32.528,30.53c0.112-0.244,0.143-0.499,0.143-0.917V28.82c0-0.32-0.06-0.709-0.154-0.918l1.096-0.186
	l0.029,0.209c0.142-0.128,0.562-0.249,0.829-0.249c0.284,0,0.621,0.034,0.854,0.283c0.152,0.169,0.152,0.396,0.152,0.679v0.975
	c0,0.418,0.029,0.673,0.148,0.917h-1.356c0.112-0.244,0.144-0.499,0.144-0.917v-0.585c0-0.244,0-0.424-0.32-0.424
	c-0.232,0-0.303,0.104-0.354,0.145v0.864c0,0.418,0.029,0.673,0.146,0.917H32.528z"/>
<path fill="#231F20" d="M37.425,29.747c0.318,0,0.442-0.278,0.442-0.615c0-0.336-0.124-0.614-0.442-0.614
	c-0.321,0-0.445,0.278-0.445,0.614C36.979,29.469,37.104,29.747,37.425,29.747 M35.884,29.132c0-1.021,0.587-1.455,1.541-1.455
	c0.951,0,1.538,0.43,1.538,1.455c0,1.027-0.587,1.456-1.538,1.456C36.471,30.588,35.884,30.153,35.884,29.132"/>
</svg>
