<?xml version="1.0" encoding="utf-8"?>
<!-- Generator: Adobe Illustrator 16.0.0, SVG Export Plug-In . SVG Version: 6.00 Build 0)  -->
<!DOCTYPE svg PUBLIC "-//W3C//DTD SVG 1.1//EN" "http://www.w3.org/Graphics/SVG/1.1/DTD/svg11.dtd">
<svg version="1.1" id="Layer_1" xmlns="http://www.w3.org/2000/svg" xmlns:xlink="http://www.w3.org/1999/xlink" x="0px" y="0px"
	 width="54px" height="58.25px" viewBox="0 0 54 58.25" enable-background="new 0 0 54 58.25" xml:space="preserve">
<path d="M30.597,3.979L11.841,11.35c-1.807,0.71-2.701,2.762-1.991,4.568l14.981,38.115c0.71,1.807,2.761,2.7,4.568,1.99
	l18.756-7.372c1.81-0.712,2.699-2.762,1.989-4.568L35.164,5.968C34.454,4.162,32.406,3.267,30.597,3.979L30.597,3.979z
	 M12.393,18.008l22.336-8.779l11.122,28.296l-22.336,8.779L12.393,18.008z M12.427,12.841l18.756-7.372
	c0.989-0.389,2.107,0.099,2.495,1.083l0.467,1.189l-22.336,8.78l-0.468-1.189C10.954,14.347,11.441,13.229,12.427,12.841
	L12.427,12.841z M47.57,47.16l-18.756,7.372c-0.985,0.388-2.104-0.1-2.492-1.085l-2.223-5.657l22.336-8.779l2.223,5.657
	C49.046,45.652,48.559,46.772,47.57,47.16L47.57,47.16z M47.57,47.16"/>
<path d="M35.56,44.146c-1.644,0.646-2.451,2.509-1.807,4.148c0.646,1.643,2.506,2.457,4.149,1.811
	c1.644-0.646,2.452-2.508,1.806-4.151C39.063,44.313,37.203,43.5,35.56,44.146L35.56,44.146z M37.418,48.872
	c-0.964,0.379-2.058-0.098-2.437-1.062c-0.377-0.959,0.1-2.052,1.063-2.431c0.965-0.379,2.053,0.099,2.43,1.058
	C38.854,47.4,38.383,48.492,37.418,48.872L37.418,48.872z M37.316,48.613"/>
<path d="M19.707,12.557l2.978-1.17c0.411-0.161,0.614-0.627,0.452-1.038c-0.161-0.411-0.627-0.615-1.038-0.453l-2.978,1.17
	c-0.415,0.163-0.613,0.628-0.452,1.039C18.83,12.516,19.291,12.72,19.707,12.557L19.707,12.557z M19.707,12.557"/>
<path d="M24.916,10.509l0.745-0.292c0.411-0.162,0.614-0.627,0.452-1.039c-0.161-0.411-0.627-0.614-1.038-0.453L24.33,9.018
	c-0.41,0.161-0.613,0.627-0.452,1.039C24.04,10.468,24.505,10.67,24.916,10.509L24.916,10.509z M24.916,10.509"/>
<path d="M42.371,3.278c-0.404-0.176-0.878,0.01-1.054,0.414c-0.177,0.406,0.008,0.875,0.413,1.051
	c3.874,1.688,5.653,6.215,3.966,10.092c-0.176,0.404,0.008,0.874,0.413,1.05c0.203,0.088,0.425,0.085,0.613,0.011
	c0.193-0.076,0.353-0.222,0.441-0.425C49.206,10.791,47.057,5.32,42.371,3.278L42.371,3.278z M42.371,3.278"/>
<path d="M39.904,6.205c-0.409-0.176-0.879,0.008-1.056,0.415c-0.176,0.404,0.008,0.874,0.413,1.049
	c1.283,0.562,2.273,1.587,2.788,2.896c0.514,1.306,0.485,2.731-0.072,4.012c-0.177,0.405,0.009,0.878,0.414,1.054
	c0.202,0.088,0.421,0.087,0.613,0.012c0.188-0.074,0.353-0.224,0.441-0.426c0.727-1.675,0.759-3.535,0.09-5.236
	C42.866,8.275,41.575,6.933,39.904,6.205L39.904,6.205z M39.904,6.205"/>
<path d="M4.208,19.492c0.176-0.404-0.008-0.874-0.413-1.051c-0.406-0.176-0.874,0.009-1.051,0.413
	c-2.04,4.686,0.109,10.153,4.793,12.194c0.202,0.088,0.419,0.087,0.609,0.013c0.192-0.076,0.354-0.224,0.441-0.426
	c0.176-0.405-0.008-0.875-0.413-1.051C4.301,27.896,2.521,23.369,4.208,19.492L4.208,19.492z M4.208,19.492"/>
<path d="M7.517,18.695c-0.406-0.177-0.877,0.008-1.055,0.414c-0.73,1.676-0.763,3.536-0.092,5.241
	c0.668,1.702,1.96,3.044,3.635,3.771c0.203,0.088,0.421,0.086,0.614,0.01c0.189-0.074,0.353-0.222,0.441-0.425
	c0.176-0.405-0.009-0.874-0.413-1.05c-1.285-0.558-2.273-1.587-2.786-2.892c-0.513-1.306-0.49-2.733,0.071-4.016
	C8.107,19.344,7.921,18.871,7.517,18.695L7.517,18.695z M7.517,18.695"/>
<path fill="#FBB619" d="M37.418,48.872c-0.964,0.379-2.058-0.098-2.437-1.062c-0.377-0.959,0.1-2.052,1.063-2.431
	c0.965-0.379,2.053,0.099,2.43,1.058C38.854,47.4,38.383,48.492,37.418,48.872L37.418,48.872z"/>
</svg>
