<?xml version="1.0" encoding="utf-8"?>
<!-- Generator: Adobe Illustrator 16.0.0, SVG Export Plug-In . SVG Version: 6.00 Build 0)  -->
<!DOCTYPE svg PUBLIC "-//W3C//DTD SVG 1.1//EN" "http://www.w3.org/Graphics/SVG/1.1/DTD/svg11.dtd">
<svg version="1.1" id="Layer_1" xmlns="http://www.w3.org/2000/svg" xmlns:xlink="http://www.w3.org/1999/xlink" x="0px" y="0px"
	 width="47.75px" height="56.373px" viewBox="0 0 47.75 56.373" enable-background="new 0 0 47.75 56.373" xml:space="preserve">
<polygon fill="#FBB619" points="14.909,33.162 34.011,26.618 27.467,7.516 8.364,14.06 "/>
<path fill="#010101" d="M34.272,27.381L15.17,33.926c-0.458,0.156-0.868-0.044-1.024-0.502L7.601,14.322
	c-0.157-0.458,0.044-0.867,0.502-1.024l19.103-6.544c0.457-0.157,0.866,0.044,1.023,0.501l6.544,19.103
	C34.93,26.815,34.729,27.225,34.272,27.381z M15.41,32.138l17.577-6.021L26.965,8.541L9.389,14.562L15.41,32.138z"/>
<path fill="#010101" d="M26.105,21.808c-0.646-1.884-2.724-2.554-4.533-2.186l-1.545-4.51c0.764-0.16,1.438-0.095,1.951,0.172
	l0.5,1.459c0.116,0.339,0.418,0.487,0.758,0.371c0.338-0.116,0.487-0.419,0.371-0.758l-1.16-3.386
	c-0.116-0.339-0.42-0.487-0.758-0.371c-0.339,0.116-0.487,0.418-0.371,0.758l0.172,0.503c-0.576-0.092-1.203-0.055-1.856,0.104
	l-0.203-0.591c-0.116-0.339-0.419-0.487-0.758-0.371c-0.339,0.116-0.487,0.419-0.371,0.757l0.207,0.605
	c-1.656,0.818-2.886,2.622-2.24,4.506c0.646,1.884,2.723,2.555,4.533,2.186l1.547,4.516c-0.738,0.15-1.435,0.096-1.948-0.164
	l-0.505-1.474c-0.116-0.338-0.419-0.487-0.758-0.371c-0.338,0.116-0.486,0.419-0.371,0.758l1.16,3.387
	c0.116,0.339,0.419,0.487,0.757,0.371c0.339-0.116,0.487-0.419,0.371-0.758l-0.181-0.528c0.576,0.096,1.208,0.07,1.864-0.082
	l0.204,0.595c0.116,0.338,0.419,0.487,0.757,0.37c0.339-0.115,0.487-0.419,0.372-0.757l-0.208-0.604
	C25.52,25.496,26.751,23.691,26.105,21.808z M17.398,18.484c-0.4-1.167,0.407-2.368,1.503-2.977l1.51,4.409
	C19.177,20.119,17.815,19.7,17.398,18.484z M23.474,25.174l-1.51-4.409c1.239-0.192,2.612,0.262,3.013,1.429
	C25.393,23.41,24.574,24.576,23.474,25.174z"/>
<path fill="#010101" d="M23.885,38.168l-8.391,2.874c-0.458,0.157-0.868-0.043-1.024-0.5c-0.157-0.459,0.044-0.868,0.502-1.024
	l8.391-2.875c0.458-0.157,0.868,0.043,1.025,0.502C24.544,37.602,24.343,38.011,23.885,38.168z"/>
<path fill="#010101" d="M32.276,35.293l-5.34,1.829c-0.457,0.157-0.867-0.043-1.023-0.501c-0.157-0.458,0.044-0.867,0.501-1.024
	l5.34-1.829c0.458-0.157,0.868,0.044,1.024,0.502C32.936,34.727,32.735,35.136,32.276,35.293z"/>
<path fill="#010101" d="M38.381,33.202l-3.052,1.045c-0.458,0.157-0.867-0.043-1.024-0.501s0.044-0.867,0.502-1.024l3.052-1.045
	c0.457-0.157,0.866,0.044,1.023,0.502C39.038,32.636,38.838,33.045,38.381,33.202z"/>
<path fill="#010101" d="M34.347,41.336l-8.392,2.875l-0.904,0.31l-7.487,2.564c-0.458,0.157-0.659,0.566-0.501,1.024
	c0.157,0.458,0.566,0.658,1.024,0.501l7.486-2.564l0.905-0.31l8.391-2.875c0.459-0.157,0.659-0.566,0.502-1.023
	C35.215,41.379,34.805,41.179,34.347,41.336z"/>
<path fill="#010101" d="M40.974,40.77l-3.052,1.046c-0.458,0.157-0.867-0.044-1.024-0.501c-0.157-0.458,0.044-0.867,0.502-1.024
	l3.052-1.045c0.457-0.157,0.866,0.043,1.023,0.502C41.631,40.204,41.431,40.613,40.974,40.77z"/>
<path fill="#010101" d="M16.791,44.826l6.865-2.352c0.458-0.157,0.659-0.566,0.502-1.023c-0.157-0.459-0.567-0.659-1.025-0.502
	l-6.866,2.352c-0.458,0.157-0.658,0.566-0.501,1.025C15.923,44.783,16.333,44.983,16.791,44.826z"/>
<path fill="#010101" d="M26.707,41.429l7.629-2.613c0.458-0.157,0.659-0.566,0.502-1.023c-0.156-0.458-0.566-0.659-1.024-0.502
	l-7.629,2.613c-0.457,0.157-0.658,0.566-0.501,1.024S26.25,41.586,26.707,41.429z"/>
<path fill="#010101" d="M37.388,37.771l2.289-0.784c0.457-0.157,0.658-0.566,0.501-1.023c-0.156-0.459-0.566-0.659-1.023-0.502
	l-2.289,0.784c-0.457,0.156-0.658,0.565-0.501,1.024C36.521,37.727,36.931,37.927,37.388,37.771z"/>
<path fill="#010101" d="M46.137,45.889l-0.764,0.262c-0.229,0.078-0.407,0.054-0.612-0.047l-2.355-1.153l-1.154,2.356
	c-0.2,0.41-0.657,0.566-1.067,0.365l-2.355-1.153l-1.153,2.355c-0.201,0.411-0.659,0.567-1.068,0.366l-2.356-1.153l-1.153,2.355
	c-0.2,0.41-0.658,0.567-1.068,0.366l-2.354-1.153l-1.154,2.355c-0.2,0.41-0.658,0.566-1.068,0.365l-2.355-1.153l-1.153,2.355
	c-0.2,0.41-0.658,0.567-1.068,0.366l-2.355-1.153l-1.154,2.355c-0.101,0.205-0.227,0.334-0.456,0.412l-0.763,0.262
	c-0.458,0.156-0.868-0.044-1.024-0.502L1.487,12.598C1.042,11.3,1.695,9.969,2.992,9.525L28.93,0.639
	c1.297-0.444,2.628,0.208,3.072,1.504l14.636,42.721C46.794,45.322,46.594,45.731,46.137,45.889z M41.778,43.119
	c0.228-0.078,0.407-0.054,0.612,0.047l2.355,1.153L30.477,2.666c-0.157-0.458-0.567-0.658-1.024-0.501L3.515,11.051
	c-0.458,0.157-0.659,0.566-0.502,1.024l14.27,41.653l1.154-2.355c0.201-0.409,0.658-0.566,1.068-0.366l2.355,1.153l1.154-2.355
	c0.201-0.409,0.658-0.566,1.068-0.365l2.355,1.153l1.154-2.355c0.2-0.41,0.658-0.566,1.067-0.366l2.355,1.153l1.153-2.355
	c0.202-0.41,0.659-0.566,1.069-0.366l2.355,1.153l1.153-2.355c0.2-0.409,0.658-0.566,1.067-0.366l2.355,1.153l1.153-2.355
	C41.423,43.327,41.549,43.198,41.778,43.119z"/>
</svg>
