<?xml version="1.0" encoding="utf-8"?>
<!-- Generator: Adobe Illustrator 16.0.0, SVG Export Plug-In . SVG Version: 6.00 Build 0)  -->
<!DOCTYPE svg PUBLIC "-//W3C//DTD SVG 1.1//EN" "http://www.w3.org/Graphics/SVG/1.1/DTD/svg11.dtd">
<svg version="1.1" id="Layer_1" xmlns="http://www.w3.org/2000/svg" xmlns:xlink="http://www.w3.org/1999/xlink" x="0px" y="0px"
	 width="51.333px" height="51.333px" viewBox="0 0 51.333 51.333" enable-background="new 0 0 51.333 51.333" xml:space="preserve">
<path fill="#010101" d="M23.83,19.823L4.925,30.79c-1.281,0.743-1.719,2.391-0.976,3.671l8.385,14.454
	c0.744,1.281,2.391,1.72,3.671,0.977L47.34,31.715c1.28-0.744,1.718-2.391,0.975-3.672l-8.386-14.455
	c-0.743-1.281-2.39-1.719-3.67-0.976L30.937,15.7l3.059-11.511c0.157-0.59,0.074-1.205-0.231-1.732
	c-0.306-0.527-0.799-0.904-1.389-1.061l-1.201-0.319c-1.216-0.323-2.47,0.404-2.793,1.62L23.83,19.823z M28.789,7.654l2.392,0.636
	l-6.055,22.783l-1.83,2.073l-0.561-2.71L28.789,7.654z M29.992,3.125c0.088-0.329,0.426-0.524,0.754-0.437l1.201,0.318
	c0.158,0.042,0.292,0.144,0.375,0.286c0.082,0.143,0.104,0.309,0.062,0.468l-0.775,2.917L29.56,6.134l-0.343-0.091L29.992,3.125z
	 M46.872,28.879c0.282,0.486,0.116,1.11-0.369,1.392L15.169,48.448c-0.485,0.282-1.11,0.116-1.392-0.369L5.392,33.624
	c-0.282-0.485-0.116-1.11,0.37-1.392l17.463-10.131l-2.151,8.097c-0.033,0.125-0.036,0.256-0.011,0.382l0.938,4.535
	c0.063,0.31,0.297,0.556,0.602,0.637c0.217,0.059,0.444,0.024,0.633-0.084c0.076-0.045,0.146-0.101,0.206-0.169l3.065-3.472
	c0.085-0.097,0.148-0.213,0.181-0.338l3.644-13.71l6.764-3.924c0.486-0.282,1.11-0.116,1.393,0.37L46.872,28.879L46.872,28.879z"/>
<path fill="#010101" d="M42.961,28.234l-0.43,0.25c-0.398,0.231-0.534,0.742-0.303,1.14c0.23,0.398,0.741,0.535,1.14,0.303
	l0.43-0.25c0.398-0.231,0.533-0.742,0.303-1.14C43.869,28.14,43.359,28.003,42.961,28.234z"/>
<path fill="#010101" d="M39.665,30.146l-16.409,9.52c-0.398,0.231-0.533,0.741-0.303,1.14c0.23,0.397,0.741,0.534,1.14,0.303
	l16.409-9.519c0.397-0.231,0.533-0.742,0.302-1.141C40.573,30.053,40.062,29.916,39.665,30.146z"/>
<path fill="#010101" d="M40.551,24.079l-10.748,6.236c-0.399,0.23-0.534,0.74-0.304,1.139c0.231,0.398,0.741,0.535,1.14,0.303
	l10.748-6.235c0.398-0.23,0.533-0.741,0.303-1.139C41.458,23.983,40.948,23.848,40.551,24.079z"/>
<path fill="#010101" d="M14.907,35.824l-1.551-2.673c0.96-0.469,1.547-0.246,1.863-0.43c0.395-0.229,0.289-0.837,0.144-1.087
	c-0.375-0.646-1.799-0.188-2.71,0.305l-0.206-0.355c-0.092-0.158-0.374-0.188-0.571-0.074c-0.224,0.131-0.297,0.367-0.206,0.524
	l0.222,0.382c-1.175,0.858-2.044,2.242-1.081,3.902c0.978,1.686,2.57,1.396,4,1.129l1.795,3.095
	c-1.404,0.675-2.294-0.041-2.729,0.211c-0.329,0.191-0.354,0.786-0.17,1.103c0.375,0.646,1.993,0.886,3.641-0.035l0.237,0.408
	c0.091,0.158,0.333,0.212,0.558,0.082c0.198-0.115,0.311-0.375,0.219-0.533l-0.26-0.447c1.308-1.023,1.763-2.483,0.823-4.104
	C17.884,35.435,16.297,35.581,14.907,35.824z M14.063,35.979c-0.851,0.142-1.577,0.193-2.013-0.558
	c-0.397-0.685-0.062-1.319,0.623-1.839L14.063,35.979z M17.288,40.111l-1.612-2.779c0.806-0.098,1.533-0.026,2.015,0.803
	C18.126,38.886,17.922,39.567,17.288,40.111z"/>
<polygon fill="#FBB619" points="28.789,7.654 31.181,8.29 25.126,31.072 23.296,33.146 22.735,30.436 "/>
</svg>
