<?xml version="1.0" encoding="utf-8"?>
<!-- Generator: Adobe Illustrator 16.0.0, SVG Export Plug-In . SVG Version: 6.00 Build 0)  -->
<!DOCTYPE svg PUBLIC "-//W3C//DTD SVG 1.1//EN" "http://www.w3.org/Graphics/SVG/1.1/DTD/svg11.dtd">
<svg version="1.1" id="Layer_1" xmlns="http://www.w3.org/2000/svg" xmlns:xlink="http://www.w3.org/1999/xlink" x="0px" y="0px"
	 width="139px" height="132px" viewBox="0 0 139 132" enable-background="new 0 0 139 132" xml:space="preserve">
<path fill="#FFFFFF" d="M128.941,69.497c1.201-1.604,2.449-3.413,2.449-5.555c0-2.308-1.445-4.228-2.723-5.922
	c-0.848-1.125-1.725-2.288-1.863-3.191c-0.154-0.96,0.332-2.371,0.803-3.733c0.685-1.977,1.453-4.216,0.761-6.352
	c-0.704-2.176-2.669-3.548-4.401-4.76c-1.166-0.813-2.367-1.652-2.791-2.483c-0.438-0.852-0.41-2.334-0.388-3.766
	c0.036-2.103,0.075-4.478-1.255-6.308c-1.336-1.836-3.619-2.533-5.633-3.147c-1.362-0.416-2.776-0.849-3.442-1.515
	c-0.667-0.667-1.099-2.08-1.515-3.445c-0.613-2.013-1.31-4.295-3.148-5.63c-1.824-1.332-4.206-1.293-6.304-1.257
	c-1.435,0.028-2.919,0.049-3.767-0.385c-0.83-0.424-1.672-1.628-2.484-2.792c-1.208-1.734-2.582-3.697-4.758-4.403
	c-2.137-0.692-4.381,0.079-6.357,0.759c-1.364,0.468-2.777,0.952-3.736,0.804c-0.9-0.141-2.064-1.018-3.189-1.866
	c-1.692-1.277-3.615-2.725-5.92-2.725s-4.229,1.448-5.922,2.725c-1.123,0.85-2.285,1.725-3.188,1.866
	c-0.956,0.153-2.37-0.336-3.735-0.804c-1.978-0.682-4.219-1.453-6.351-0.763c-2.177,0.708-3.548,2.67-4.761,4.403
	c-0.812,1.162-1.653,2.366-2.484,2.79c-0.85,0.434-2.336,0.407-3.766,0.385c-2.1-0.04-4.479-0.074-6.309,1.257
	c-1.834,1.335-2.531,3.618-3.146,5.629c-0.416,1.367-0.847,2.778-1.513,3.445c-0.668,0.667-2.082,1.099-3.447,1.517
	c-2.014,0.613-4.295,1.311-5.631,3.146c-1.33,1.828-1.291,4.206-1.256,6.308c0.022,1.434,0.047,2.915-0.387,3.766
	c-0.423,0.829-1.625,1.67-2.79,2.483c-1.733,1.212-3.696,2.583-4.403,4.76c-0.693,2.136,0.078,4.377,0.761,6.356
	c0.47,1.363,0.958,2.773,0.805,3.733c-0.142,0.903-1.017,2.065-1.866,3.189c-1.275,1.696-2.725,3.617-2.725,5.924
	c0,2.292,1.432,4.203,2.702,5.892c-1.623,1.061-2.638,2.859-2.638,4.877v24.846c0,3.232,2.629,5.862,5.862,5.862h15.261
	c0.528,0.737,0.901,1.956,1.265,3.146c0.612,2.014,1.312,4.291,3.146,5.627c1.828,1.336,4.209,1.289,6.311,1.258
	c1.43-0.016,2.914-0.047,3.766,0.388c0.829,0.421,1.668,1.625,2.482,2.789c1.211,1.733,2.582,3.696,4.759,4.405
	c2.134,0.688,4.375-0.078,6.354-0.76c1.363-0.469,2.777-0.972,3.733-0.807c0.903,0.143,2.065,1.02,3.19,1.865
	c1.695,1.277,3.615,2.727,5.923,2.727c2.306,0,4.226-1.449,5.922-2.725c1.124-0.846,2.287-1.725,3.19-1.865
	c0.945-0.165,2.371,0.336,3.733,0.805c1.979,0.684,4.222,1.455,6.353,0.762c2.177-0.704,3.547-2.672,4.76-4.405
	c0.812-1.161,1.656-2.366,2.482-2.787c0.85-0.438,2.328-0.414,3.768-0.388c2.085,0.031,4.476,0.074,6.305-1.258
	c1.836-1.334,2.531-3.613,3.145-5.627c0.363-1.188,0.737-2.412,1.271-3.148h16.095c3.232,0,5.862-2.63,5.862-5.861V74.711
	C132.164,72.462,130.902,70.479,128.941,69.497z"/>
<path fill="#FAB518" d="M117.43,71.706l-2.015-0.251c0.075-0.6,0.117-1.188,0.17-1.779h-0.187l-2.012-0.253
	c0.248-1.998,0.373-3.963,0.373-5.838c0-12.361-4.834-23.607-12.703-31.97c-8.361-7.868-19.607-12.702-31.968-12.702
	c-25.751,0-46.701,20.95-46.701,46.701c0,1.876,0.126,3.843,0.377,5.841l-2.015,0.251H117.43z"/>
<path fill="#FAB518" d="M91.254,102.764H47.306c6.67,3.807,14.152,5.822,21.972,5.822C77.102,108.586,84.582,106.568,91.254,102.764
	L91.254,102.764z"/>
<path d="M128.941,69.497c1.201-1.604,2.449-3.413,2.449-5.555c0-2.308-1.445-4.228-2.723-5.922
	c-0.848-1.125-1.725-2.288-1.863-3.191c-0.154-0.96,0.332-2.371,0.803-3.733c0.685-1.977,1.453-4.216,0.761-6.352
	c-0.704-2.176-2.669-3.548-4.401-4.76c-1.166-0.813-2.367-1.652-2.791-2.483c-0.438-0.852-0.41-2.334-0.388-3.766
	c0.036-2.103,0.075-4.478-1.255-6.308c-1.336-1.836-3.619-2.533-5.633-3.147c-1.362-0.416-2.776-0.849-3.442-1.515
	c-0.667-0.667-1.099-2.08-1.515-3.445c-0.613-2.013-1.31-4.295-3.148-5.63c-1.824-1.332-4.206-1.293-6.304-1.257
	c-1.435,0.028-2.919,0.049-3.767-0.385c-0.83-0.424-1.672-1.628-2.484-2.792c-1.208-1.734-2.582-3.697-4.758-4.403
	c-2.137-0.692-4.381,0.079-6.357,0.759c-1.364,0.468-2.777,0.952-3.736,0.804c-0.9-0.141-2.064-1.018-3.189-1.866
	c-1.692-1.277-3.615-2.725-5.92-2.725c-2.305,0-4.228,1.448-5.922,2.725c-1.123,0.85-2.285,1.725-3.188,1.866
	c-0.956,0.153-2.37-0.336-3.736-0.804c-1.977-0.682-4.218-1.453-6.35-0.763c-2.177,0.708-3.548,2.67-4.76,4.403
	c-0.813,1.162-1.654,2.366-2.485,2.79c-0.849,0.434-2.336,0.407-3.766,0.385c-2.1-0.04-4.478-0.074-6.308,1.257
	c-1.835,1.335-2.531,3.618-3.146,5.629c-0.416,1.367-0.847,2.778-1.513,3.445c-0.668,0.667-2.081,1.099-3.447,1.517
	c-2.013,0.613-4.294,1.311-5.631,3.146c-1.329,1.828-1.291,4.206-1.255,6.308c0.022,1.434,0.046,2.915-0.387,3.766
	c-0.423,0.829-1.625,1.67-2.79,2.483c-1.733,1.212-3.696,2.583-4.404,4.76c-0.693,2.136,0.079,4.377,0.761,6.356
	c0.47,1.363,0.958,2.773,0.805,3.733c-0.142,0.903-1.017,2.065-1.866,3.189c-1.276,1.696-2.725,3.617-2.725,5.924
	c0,2.292,1.432,4.203,2.702,5.892c-1.623,1.061-2.638,2.859-2.638,4.877v24.846c0,3.232,2.63,5.862,5.863,5.862h15.26
	c0.529,0.737,0.902,1.956,1.265,3.146c0.613,2.014,1.312,4.291,3.146,5.627c1.828,1.336,4.208,1.289,6.31,1.258
	c1.43-0.016,2.915-0.047,3.766,0.388c0.829,0.421,1.668,1.625,2.483,2.789c1.21,1.733,2.582,3.696,4.758,4.405
	c2.134,0.688,4.375-0.078,6.354-0.76c1.364-0.469,2.778-0.972,3.734-0.807c0.904,0.143,2.065,1.02,3.191,1.865
	c1.694,1.277,3.614,2.727,5.922,2.727c2.306,0,4.226-1.449,5.922-2.725c1.124-0.846,2.287-1.725,3.19-1.865
	c0.945-0.165,2.371,0.336,3.733,0.805c1.979,0.684,4.222,1.455,6.353,0.762c2.177-0.704,3.547-2.672,4.76-4.405
	c0.812-1.161,1.656-2.366,2.482-2.787c0.85-0.438,2.328-0.414,3.768-0.388c2.085,0.031,4.476,0.074,6.305-1.258
	c1.836-1.334,2.531-3.613,3.145-5.627c0.363-1.188,0.737-2.412,1.271-3.148h16.095c3.232,0,5.862-2.63,5.862-5.861V74.711
	C132.164,72.462,130.902,70.479,128.941,69.497z M12.99,60.355c1.135-1.506,2.307-3.063,2.602-4.925
	c0.301-1.913-0.347-3.788-0.972-5.601c-0.506-1.469-1.031-2.991-0.736-3.89c0.305-0.938,1.642-1.872,2.935-2.775
	c1.553-1.085,3.159-2.208,4.024-3.9c0.874-1.711,0.841-3.686,0.809-5.596c-0.026-1.565-0.05-3.179,0.515-3.958
	c0.572-0.787,2.124-1.261,3.624-1.718c1.822-0.557,3.706-1.132,5.059-2.485c1.354-1.352,1.929-3.235,2.483-5.055
	c0.458-1.5,0.93-3.054,1.719-3.626c0.777-0.567,2.394-0.541,3.958-0.514c1.91,0.03,3.883,0.064,5.595-0.81
	c1.692-0.863,2.816-2.469,3.903-4.024c0.902-1.293,1.838-2.628,2.776-2.932c0.895-0.295,2.418,0.231,3.886,0.737
	c1.815,0.626,3.689,1.269,5.601,0.971c1.86-0.292,3.419-1.467,4.926-2.602c1.265-0.954,2.576-1.943,3.582-1.943
	c1.009,0,2.319,0.989,3.586,1.943c1.507,1.135,3.062,2.31,4.924,2.602c1.91,0.294,3.789-0.345,5.604-0.971
	c1.472-0.506,2.987-1.033,3.892-0.737c0.728,0.233,1.45,1.093,2.157,2.066c0.207,0.283,0.412,0.576,0.617,0.866
	c0.893,1.277,1.828,2.568,3.066,3.476c0.268,0.196,0.529,0.395,0.831,0.548c1.713,0.874,3.694,0.848,5.599,0.81
	c1.562-0.022,3.18-0.053,3.959,0.514c0.418,0.303,0.741,0.889,1.025,1.587c0.252,0.622,0.475,1.332,0.691,2.04
	c0.556,1.821,1.131,3.706,2.483,5.059c0.328,0.331,0.693,0.613,1.078,0.861c1.19,0.769,2.603,1.202,3.979,1.62
	c1.498,0.459,3.052,0.932,3.623,1.718c0.17,0.234,0.274,0.555,0.354,0.914c0.187,0.841,0.179,1.947,0.159,3.044
	c-0.03,1.91-0.062,3.885,0.811,5.598c0.577,1.127,1.493,1.993,2.493,2.773c0.499,0.389,1.013,0.764,1.529,1.125
	c1.19,0.833,2.384,1.692,2.808,2.556c0.037,0.074,0.104,0.145,0.125,0.219c0.29,0.9-0.23,2.419-0.738,3.89
	c-0.625,1.811-1.269,3.687-0.97,5.601c0.294,1.86,1.468,3.419,2.603,4.922c0.955,1.272,1.943,2.582,1.943,3.59
	c0,1.007-0.988,2.315-1.943,3.586c-0.326,0.433-0.652,0.873-0.963,1.32h-7.066c0.172-1.672,0.268-3.32,0.268-4.907
	c0-12.887-5.057-24.608-13.279-33.306c-8.854-9.362-21.375-15.221-35.245-15.221c-26.758,0-48.529,21.768-48.529,48.527
	c0,1.587,0.097,3.235,0.27,4.907h-7.068c-0.311-0.449-0.637-0.889-0.963-1.322c-0.954-1.27-1.942-2.577-1.942-3.586
	C11.047,62.934,12.036,61.623,12.99,60.355z M24.919,68.85c-0.186-1.677-0.285-3.326-0.285-4.907
	c0-24.619,20.028-44.646,44.644-44.646c12.802,0,24.354,5.424,32.5,14.085c7.522,7.994,12.146,18.745,12.146,30.561
	c0,1.581-0.1,3.23-0.287,4.907H24.919z M105.225,107.432c-0.455,1.5-0.93,3.051-1.719,3.623c-0.775,0.565-2.402,0.539-3.956,0.516
	c-1.909-0.03-3.882-0.062-5.598,0.811c-1.691,0.865-2.813,2.471-3.897,4.021c-0.904,1.293-1.839,2.629-2.777,2.936
	c-0.899,0.297-2.418-0.229-3.891-0.736c-1.812-0.623-3.688-1.259-5.601-0.97c-1.862,0.292-3.419,1.466-4.925,2.601
	c-1.264,0.955-2.575,1.941-3.583,1.941c-1.008,0-2.317-0.986-3.588-1.941c-1.503-1.135-3.062-2.307-4.922-2.601
	c-1.908-0.289-3.788,0.347-5.601,0.97c-1.471,0.508-2.987,1.033-3.891,0.736c-0.073-0.021-0.146-0.091-0.218-0.125
	c-0.866-0.424-1.725-1.617-2.558-2.809c-0.363-0.519-0.736-1.032-1.128-1.534c-0.781-0.998-1.644-1.916-2.771-2.489
	c-1.712-0.875-3.687-0.843-5.593-0.811c-1.097,0.014-2.207,0.023-3.046-0.163c-0.359-0.079-0.682-0.183-0.914-0.354
	c-0.787-0.57-1.261-2.123-1.719-3.621c-0.205-0.674-0.414-1.354-0.663-2.013h11.502c7.554,4.606,16.124,7.05,25.106,7.05
	c8.993,0,17.575-2.436,25.131-7.05H105.9C105.646,106.076,105.432,106.756,105.225,107.432z M52.81,105.419h32.939
	c-5.185,2.078-10.733,3.167-16.471,3.167C63.543,108.586,57.993,107.497,52.81,105.419z M128.723,99.557
	c0,1.334-1.086,2.42-2.421,2.42H13.091c-1.334,0-2.42-1.086-2.42-2.42V74.711c0-1.068,0.699-1.993,1.731-2.301
	c0.274-0.08,0.493-0.118,0.689-0.118h113.21c0.196,0,0.413,0.037,0.684,0.116c1.039,0.311,1.736,1.234,1.736,2.303v24.846H128.723z"
	/>
<path d="M63.209,35.6h-8.586l-0.632,8.323c1.37-1.949,3.792-3.213,6.953-3.213c4.373,0,7.112,3.003,7.112,7.375v7.796
	c0,5.847-4.109,9.588-10.799,9.588c-6.637,0-9.956-4.636-9.956-9.219v-2.423h6.269v1.475c0,2.582,1.317,4.214,3.846,4.214
	s3.846-1.37,3.846-4.056v-6.216c0-2.001-1.317-3.318-3.161-3.318c-2.212,0-3.687,1.528-4.214,3.108l-5.953-0.948L49.04,29.49h18.859
	C67.477,33.598,66.476,35.6,63.209,35.6z"/>
<path d="M82.075,65.469c-6.689,0-10.798-4.109-10.798-10.167V38.813c0-6.11,4.108-10.167,10.798-10.167
	c6.638,0,10.8,4.057,10.8,10.167v16.488C92.875,61.359,88.713,65.469,82.075,65.469z M86.025,38.392c0-1.949-1.422-3.529-3.95-3.529
	c-2.476,0-3.95,1.581-3.95,3.529V55.67c0,1.949,1.475,3.53,3.95,3.53c2.528,0,3.95-1.581,3.95-3.53V38.392z"/>
<path d="M28.27,89.273v9.847h-5.417v-9.847l-6.515-13.914h5.682l3.826,9.384l3.636-9.384h5.417L28.27,89.273z"/>
<path d="M40.315,99.12V75.359h14.053v4.281h-8.637v5.209h5.947v3.854h-5.947v5.958h8.637v4.459H40.315z"/>
<path d="M71.754,99.12l-1.061-4.709h-5.227l-1.061,4.709H59.33l5.909-23.761H71.3l5.871,23.761H71.754z M68.194,81.96l-1.932,8.67
	h3.712L68.194,81.96z"/>
<path d="M96.527,99.264c-2.197,0-3.03-1.428-3.03-3.64v-3.89c0-1.248-0.683-2.317-2.235-2.317h-2.916v9.703H82.93V75.359h9.09
	c4.092,0,6.554,2.213,6.554,5.638v2.567c0,1.928-0.984,3.391-3.259,3.961c2.273,0.5,3.373,2.283,3.373,3.925v3.889
	c0,1.104,0.379,1.854,1.061,2.427v1.498H96.527z M93.346,81.282c0-1.177-0.531-1.927-1.932-1.927h-3.068v6.528h2.842
	c1.4,0,2.158-0.678,2.158-2.104V81.282z"/>
<path d="M113.195,99.729c-4.963,0-8.106-2.677-8.106-6.744v-1.213h4.962v0.785c0,1.998,1.061,3.067,3.03,3.067
	c1.933,0,2.879-1.034,2.879-2.676c0-1.714-1.438-2.747-4.356-4.175c-3.029-1.533-6.25-3.424-6.25-7.062
	c0-3.641,2.767-6.922,7.918-6.922c4.621,0,7.688,2.926,7.688,6.707v0.964h-4.886v-0.749c0-1.605-0.947-2.854-2.842-2.854
	c-1.592,0-2.613,0.928-2.613,2.354c0,1.678,1.439,2.604,4.658,4.175c3.522,1.818,5.984,3.675,5.984,7.136
	C121.264,96.374,118.232,99.729,113.195,99.729z"/>
</svg>
